<svg width="11" height="10" viewBox="0 0 11 10" fill="none" xmlns="http://www.w3.org/2000/svg">
<g id="Group 6">
<path id="Vector" d="M9.9619 0.333252L6.09448 3.21765L6.80966 1.5159L9.9619 0.333252Z" fill="#E2761B"/>
<path id="Vector_2" d="M1.03397 0.333252L4.87029 3.24497L4.1901 1.5159L1.03397 0.333252ZM8.57058 7.01929L7.54056 8.60395L9.7444 9.21283L10.378 7.05441L8.57058 7.01929ZM0.625854 7.05441L1.25552 9.21283L3.45937 8.60395L2.42935 7.01929L0.625854 7.05441Z" fill="#E4761B"/>
<path id="Vector_3" d="M3.33483 4.34193L2.7207 5.27477L4.909 5.37235L4.83126 3.01096L3.33483 4.34193ZM7.66089 4.34193L6.14502 2.98364L6.09449 5.37235L8.2789 5.27477L7.66089 4.34193ZM3.4592 8.60413L4.77296 7.96011L3.638 7.0702L3.4592 8.60413ZM6.22275 7.96011L7.5404 8.60413L7.35771 7.0702L6.22275 7.96011Z" fill="#E4761B"/>
<path id="Vector_4" d="M7.54042 8.60398L6.22278 7.95996L6.32772 8.82255L6.31606 9.18554L7.54042 8.60398ZM3.45923 8.60398L4.68359 9.18554L4.67581 8.82255L4.77298 7.95996L3.45923 8.60398Z" fill="#D7C1B3"/>
<path id="Vector_5" d="M4.70303 6.50019L3.60693 6.17623L4.38042 5.82104L4.70303 6.50019ZM6.29275 6.50019L6.61535 5.82104L7.39272 6.17623L6.29275 6.50019Z" fill="#233447"/>
<path id="Vector_6" d="M3.45934 8.60401L3.64591 7.01935L2.42932 7.05448L3.45934 8.60401ZM7.35396 7.01935L7.54053 8.60401L8.57054 7.05448L7.35396 7.01935ZM8.27903 5.27466L6.09462 5.37224L6.29674 6.50024L6.61935 5.82109L7.39672 6.17628L8.27903 5.27466ZM3.60704 6.17628L4.38441 5.82109L4.70313 6.50024L4.90913 5.37224L2.72084 5.27466L3.60704 6.17628Z" fill="#CD6116"/>
<path id="Vector_7" d="M2.7207 5.27466L3.638 7.07009L3.6069 6.17628L2.7207 5.27466ZM7.39658 6.17628L7.35771 7.07009L8.2789 5.27466L7.39658 6.17628ZM4.909 5.37224L4.703 6.50024L4.95953 7.8312L5.01783 6.0787L4.909 5.37224ZM6.09449 5.37224L5.98954 6.0748L6.03619 7.8312L6.2966 6.50024L6.09449 5.37224Z" fill="#E4751F"/>
<path id="Vector_8" d="M6.29663 6.50023L6.03622 7.83119L6.22278 7.95999L7.35774 7.07008L7.39661 6.17627L6.29663 6.50023ZM3.60693 6.17627L3.63803 7.07008L4.77299 7.95999L4.95956 7.83119L4.70303 6.50023L3.60693 6.17627Z" fill="#F6851B"/>
<path id="Vector_9" d="M6.31606 9.18557L6.32772 8.82258L6.23055 8.73671H4.76521L4.67581 8.82258L4.68359 9.18557L3.45923 8.604L3.88678 8.95528L4.75355 9.56027H6.24221L7.11287 8.95528L7.54042 8.604L6.31606 9.18557Z" fill="#C0AD9E"/>
<path id="Vector_10" d="M6.22275 7.9601L6.03618 7.8313H4.95952L4.77295 7.9601L4.67578 8.82269L4.76518 8.73682H6.23052L6.32769 8.82269L6.22275 7.9601Z" fill="#161616"/>
<path id="Vector_11" d="M10.1252 3.405L10.4555 1.81253L9.9619 0.333252L6.22275 3.12007L7.66089 4.34175L9.69371 4.93893L10.1446 4.412L9.95024 4.27149L10.2612 3.98657L10.0202 3.79922L10.3312 3.56113L10.1252 3.405ZM0.544067 1.81253L0.87445 3.405L0.66456 3.56113L0.975508 3.79922L0.73841 3.98657L1.04936 4.27149L0.855015 4.412L1.302 4.93893L3.33483 4.34175L4.77296 3.12007L1.03381 0.333252L0.544067 1.81253Z" fill="#763D16"/>
<path id="Vector_12" d="M9.69388 4.9389L7.66105 4.34172L8.27906 5.27457L7.35788 7.07L8.57058 7.05439H10.378L9.69388 4.9389ZM3.33499 4.34172L1.30217 4.9389L0.625854 7.05439H2.42935L3.63816 7.07L2.72087 5.27457L3.33499 4.34172ZM6.09465 5.37214L6.22292 3.12005L6.81372 1.51587H4.1901L4.77312 3.12005L4.90916 5.37214L4.95581 6.08251L4.95969 7.83111H6.03635L6.04412 6.08251L6.09465 5.37214Z" fill="#F6851B"/>
</g>
</svg>
