<svg width="16" height="16" viewBox="0 0 16 16" fill="none" xmlns="http://www.w3.org/2000/svg">
<g id="crypto-icon">
<rect width="16" height="16" rx="4" fill="#FBE94B"/>
<path id="Union" fill-rule="evenodd" clip-rule="evenodd" d="M5.92888 7.14893L8.00048 5.07732L10.0739 7.1507L11.2792 5.94537L8.00048 2.66667L4.72355 5.9436L5.92888 7.14893ZM2.66642 8.00065L3.87144 6.79564L5.07645 8.00065L3.87144 9.20567L2.66642 8.00065ZM8.00047 10.9246L5.92887 8.85301L4.72176 10.0566L4.72354 10.0583L8.00047 13.3353L11.2792 10.0566L10.0738 8.85124L8.00047 10.9246ZM10.9234 8.00147L12.1284 6.79645L13.3334 8.00146L12.1284 9.20648L10.9234 8.00147ZM8.00042 6.778L9.22351 8.00108L8.00042 9.22593L6.77734 8.00285V7.9993L6.99214 7.78451L7.09687 7.68155L8.00042 6.778Z" fill="#050F1B"/>
</g>
</svg>
