<svg width="16" height="16" viewBox="0 0 16 16" fill="none" xmlns="http://www.w3.org/2000/svg">
<rect width="16" height="16" rx="4" fill="#F7F8F0"/>
<path fill-rule="evenodd" clip-rule="evenodd" d="M5.92884 7.14901L8.00044 5.07741L10.0738 7.15079L11.2792 5.94546L8.00044 2.66675L4.72351 5.94368L5.92884 7.14901ZM2.66638 8.00073L3.8714 6.79572L5.07641 8.00073L3.8714 9.20575L2.66638 8.00073ZM8.00043 10.9247L5.92882 8.85309L4.72172 10.0566L4.7235 10.0584L8.00043 13.3354L11.2791 10.0566L10.0738 8.85132L8.00043 10.9247ZM10.9234 8.00155L12.1284 6.79653L13.3334 8.00155L12.1284 9.20656L10.9234 8.00155ZM8.00038 6.77808L9.22346 8.00116L8.00038 9.22601L6.7773 8.00293V7.99938L6.9921 7.78459L7.09683 7.68163L8.00038 6.77808Z" fill="#050F1B"/>
</svg>
