<svg width="16" height="16" viewBox="0 0 16 16" fill="none" xmlns="http://www.w3.org/2000/svg">
<rect width="16" height="16" rx="4" fill="#F7F8F0"/>
<path d="M8.03925 3.38339C9.2768 3.38339 10.4649 3.38339 11.7024 3.38339C11.8014 3.38339 11.8509 3.43353 11.8509 3.48366C12.5439 5.03791 13.237 6.54203 13.9795 8.04614C14.029 8.09628 13.9795 8.14641 13.93 8.19655C13.0885 9.04888 12.2469 9.90121 11.3559 10.7535C10.2668 11.8064 9.12829 12.9094 8.03925 13.9623C7.94025 14.0125 7.94025 14.0125 7.89074 13.9623C6.8017 12.9094 5.71265 11.8566 4.62361 10.7535C3.78207 9.90121 2.89104 9.04888 2.0495 8.19655C2 8.14641 2 8.09628 2 8.04614C2.34651 7.24395 2.74253 6.49189 3.08904 5.68969C3.43556 4.93764 3.78207 4.23572 4.12859 3.48366C4.17809 3.38339 4.22759 3.33325 4.3761 3.33325C5.61365 3.38339 6.8017 3.33325 8.03925 3.38339ZM8.08875 4.73709C7.19771 4.73709 6.25718 4.73709 5.36614 4.73709C5.31664 4.73709 5.31664 4.73709 5.26714 4.73709C5.21763 4.73709 5.21763 4.73709 5.21763 4.78723C5.21763 5.23846 5.21763 5.68969 5.16813 6.19107C5.16813 6.2412 5.16813 6.2412 5.21763 6.2412C5.36614 6.2412 5.51465 6.2412 5.66315 6.2412C6.15817 6.2412 6.65319 6.2412 7.14821 6.2412C7.19771 6.2412 7.19772 6.2412 7.24722 6.2412C7.29672 6.2412 7.29672 6.29134 7.29672 6.34148C7.29672 6.54203 7.29672 6.79271 7.29672 6.99326C7.29672 7.0434 7.29672 7.0434 7.24722 7.09353C6.9007 7.14367 6.55419 7.14367 6.20767 7.19381C5.76216 7.24394 5.31664 7.34422 4.92062 7.49463C4.72261 7.54477 4.57411 7.64504 4.4256 7.74532C4.27709 7.89573 4.27709 8.09628 4.4256 8.19655C4.5246 8.29682 4.62361 8.34696 4.72261 8.3971C5.06913 8.54751 5.41564 8.59765 5.76216 8.69792C6.25718 8.79819 6.7522 8.84833 7.24722 8.89847C7.34622 8.89847 7.34622 8.89847 7.34622 8.99874C7.34622 9.90121 7.34622 10.8538 7.34622 11.7563C7.34622 11.8566 7.34622 11.8566 7.44523 11.8566C7.89074 11.8566 8.38576 11.8566 8.83128 11.8566C8.97979 11.8566 8.97979 11.8566 8.97979 11.7061C8.97979 10.9541 8.97979 10.2522 8.97979 9.50011C8.97979 9.29957 8.97979 9.09902 8.97979 8.89847C8.97979 8.7982 9.02929 8.7982 9.07879 8.7982C9.57381 8.7982 10.0193 8.74806 10.5144 8.64778C10.9104 8.59765 11.2569 8.49737 11.6034 8.34696C11.7024 8.29682 11.8014 8.19655 11.9004 8.14641C11.9994 8.04614 11.9994 7.94586 11.9004 7.84559C11.8014 7.79545 11.7519 7.69518 11.6529 7.64504C11.0589 7.29408 10.3658 7.14367 9.67282 7.09353C9.47481 7.09353 9.2768 7.09353 9.07879 7.0434C9.02929 7.0434 9.02929 7.0434 9.02929 6.94312C9.02929 6.74257 9.02929 6.49189 9.02929 6.29134C9.02929 6.2412 9.02929 6.19107 9.12829 6.19107C9.2768 6.19107 9.42531 6.19107 9.57381 6.19107C10.0688 6.19107 10.5144 6.19107 11.0094 6.19107C11.1084 6.19107 11.1084 6.14093 11.1084 6.09079C11.1084 6.04066 11.1084 6.04065 11.1084 5.99052C11.1084 5.58942 11.1084 5.18832 11.1084 4.73709C11.1084 4.63682 11.1084 4.63682 11.0094 4.63682C9.92033 4.73709 8.97979 4.73709 8.08875 4.73709Z" fill="#050F1B"/>
<path d="M7.84109 8.54729C7.49457 8.54729 7.19756 8.54729 6.85105 8.49715C6.30652 8.44701 5.7125 8.39687 5.16798 8.19633C5.06897 8.14619 4.96997 8.09605 4.82146 8.04591C4.67296 7.94564 4.67296 7.84537 4.82146 7.79523C5.01947 7.69495 5.21748 7.64482 5.41549 7.59468C5.8115 7.49441 6.20752 7.44427 6.65304 7.39413C6.80155 7.39413 6.99955 7.34399 7.14806 7.34399C7.19756 7.34399 7.24707 7.34399 7.24707 7.44427C7.24707 7.74509 7.24707 7.99578 7.24707 8.2966C7.24707 8.39687 7.29657 8.39688 7.34607 8.39688C7.74209 8.39688 8.1381 8.39688 8.48462 8.39688C8.58362 8.39688 8.68262 8.39688 8.78163 8.39688C8.88063 8.39688 8.88063 8.39687 8.88063 8.2966C8.88063 8.04591 8.88063 7.79523 8.88063 7.54454C8.88063 7.39413 8.88063 7.39413 9.02914 7.39413C9.67267 7.44427 10.3162 7.49441 10.9597 7.69495C11.0587 7.74509 11.2072 7.79523 11.3062 7.84537C11.4052 7.8955 11.4052 7.99578 11.3062 8.04591C11.1082 8.19633 10.9102 8.24646 10.6627 8.2966C10.1677 8.39687 9.67267 8.49715 9.17765 8.49715C8.78163 8.49715 8.28661 8.54729 7.84109 8.54729Z" fill="#050F1B"/>
</svg>
