<svg width="16" height="16" viewBox="0 0 16 16" fill="none" xmlns="http://www.w3.org/2000/svg">
<g id="crypto-icon">
<rect width="16" height="16" rx="4" fill="#FBE94B"/>
<path id="binancedex" d="M9.11143 11.9655V13.3103L7.93902 14L6.80109 13.3103V11.9655L7.93902 12.6552L9.11143 11.9655ZM2.83557 7.31034L3.9735 8V10.3103L5.93902 11.4828V12.8276L2.83557 11V7.31034ZM13.0425 7.31034V11L9.90453 12.8276V11.4828L11.8701 10.3103V8L13.0425 7.31034ZM9.90453 5.48276L11.0769 6.17241V7.51724L9.11143 8.68965V11.0345L7.9735 11.7241L6.83557 11.0345V8.68965L4.80109 7.51724V6.17241L5.9735 5.48276L7.93902 6.65517L9.90453 5.48276ZM4.80109 8.48276L5.93902 9.17241V10.5172L4.80109 9.82758V8.48276ZM11.0769 8.48276V9.82758L9.93902 10.5172V9.17241L11.0769 8.48276ZM3.9735 4.31034L5.14592 5L3.9735 5.68965V7.03448L2.83557 6.34483V5L3.9735 4.31034ZM11.9045 4.31034L13.0769 5V6.34483L11.9045 7.03448V5.68965L10.7666 5L11.9045 4.31034ZM7.93902 4.31034L9.11143 5L7.93902 5.68965L6.80109 5L7.93902 4.31034ZM7.93902 2L11.0769 3.82759L9.93902 4.51724L7.9735 3.34483L5.9735 4.51724L4.83557 3.82759L7.93902 2Z" fill="#050F1B"/>
</g>
</svg>
