<svg width="15" height="16" viewBox="0 0 15 16" fill="none" xmlns="http://www.w3.org/2000/svg">
<g id="elements">
<path id="Subtract" fill-rule="evenodd" clip-rule="evenodd" d="M5.99983 14.9648C6.18274 15.0964 6.37876 15.1456 6.56516 15.1668H8.43484C8.62124 15.1456 8.81726 15.0964 9.00017 14.9648C9.18299 14.8332 9.29151 14.6632 9.37051 14.4936C9.44146 14.3413 9.79898 13.2743 9.79898 13.2743C9.79898 13.2743 9.97362 12.9787 10.117 12.8846C10.3987 12.6998 10.6829 12.6598 10.8681 12.6998C10.8681 12.6998 12.1224 13.053 12.2995 13.081C12.4965 13.1122 12.7121 13.1162 12.9349 13.0259C13.1577 12.9355 13.3093 12.7828 13.4287 12.6235L14.3877 10.9686C14.4628 10.7958 14.5182 10.6007 14.4944 10.3757C14.4707 10.1507 14.3759 9.97136 14.2664 9.81791C14.1681 9.68012 13.3394 8.75772 13.1961 8.59886C13.1961 8.59886 13.0227 8.33304 13.0227 8.00005C13.0227 7.61021 13.1961 7.4014 13.1961 7.4014C13.1961 7.4014 14.1681 6.32015 14.2664 6.18236C14.3759 6.02891 14.4707 5.84957 14.4944 5.62457C14.5182 5.39959 14.4628 5.20451 14.3877 5.03172C14.3203 4.87653 13.4287 3.37675 13.4287 3.37675C13.3093 3.21747 13.1577 3.06473 12.9349 2.97442C12.7121 2.88407 12.4966 2.88805 12.2995 2.91923C12.1224 2.94726 11.088 3.23815 10.868 3.3004C10.868 3.3004 10.5152 3.37675 10.1171 3.11569C9.97363 3.02162 9.86248 2.88558 9.79896 2.72598C9.79896 2.72598 9.44146 1.65903 9.37051 1.5067C9.29151 1.33712 9.18299 1.16714 9.00017 1.03555C8.81726 0.903898 8.62124 0.854748 8.43484 0.833496L6.56516 0.833496C6.37876 0.854748 6.18274 0.903898 5.99983 1.03555C5.81701 1.16714 5.70849 1.33712 5.62949 1.5067C5.55854 1.65903 5.20104 2.72598 5.20104 2.72598C5.13752 2.88558 5.02638 3.02162 4.88292 3.11569C4.48484 3.37675 4.13196 3.3004 4.13196 3.3004C3.91197 3.23815 2.8776 2.94726 2.70046 2.91923C2.50345 2.88805 2.28793 2.88407 2.06506 2.97442C1.84228 3.06473 1.69068 3.21747 1.57132 3.37675C1.57132 3.37675 0.67971 4.87653 0.61229 5.03172C0.537218 5.20451 0.481839 5.39959 0.505551 5.62457C0.529267 5.84957 0.624126 6.02891 0.733621 6.18236C0.83194 6.32015 1.80391 7.4014 1.80391 7.4014C1.80391 7.4014 1.97727 7.61021 1.97727 8.00005C1.97727 8.33304 1.80392 8.59886 1.80392 8.59886C1.66056 8.75772 0.831942 9.68012 0.733624 9.81791C0.624129 9.97136 0.529269 10.1507 0.505552 10.3757C0.481838 10.6007 0.53722 10.7958 0.612291 10.9686L1.57132 12.6235C1.69067 12.7828 1.84227 12.9355 2.06507 13.0259C2.28794 13.1162 2.50346 13.1122 2.70048 13.081C2.87762 13.053 4.13193 12.6998 4.13193 12.6998C4.31708 12.6598 4.60129 12.6998 4.88296 12.8846C5.02638 12.9787 5.20102 13.2743 5.20102 13.2743C5.20102 13.2743 5.55854 14.3413 5.62949 14.4936C5.70849 14.6632 5.81701 14.8332 5.99983 14.9648ZM7.51302 10.3333C8.80169 10.3333 9.84635 9.28866 9.84635 8C9.84635 6.71134 8.80169 5.66667 7.51302 5.66667C6.22436 5.66667 5.17969 6.71134 5.17969 8C5.17969 9.28866 6.22436 10.3333 7.51302 10.3333Z" fill="#F7F8F0"/>
</g>
</svg>
