<svg width="16" height="16" viewBox="0 0 16 16" fill="none" xmlns="http://www.w3.org/2000/svg">
<g id="crypto-icon">
<rect width="16" height="16" rx="4" fill="url(#paint0_linear_66_2058)"/>
<g id="Vector">
<path d="M4.40013 10.107C4.46541 10.0446 4.5539 10.0096 4.64616 10.0096H13.159C13.314 10.0096 13.3917 10.189 13.2819 10.2939L11.5999 11.9025C11.5346 11.9649 11.4461 12 11.3538 12H2.84103C2.68597 12 2.60833 11.8205 2.71802 11.7156L4.40013 10.107Z" fill="#F7F8F0"/>
<path d="M4.40013 4.09748C4.4654 4.03506 4.55389 4 4.64616 4H13.159C13.314 4 13.3917 4.17947 13.2819 4.28439L11.5999 5.89297C11.5346 5.95537 11.4461 5.99043 11.3538 5.99043H2.84103C2.68597 5.99043 2.60833 5.81096 2.71802 5.70606L4.40013 4.09748Z" fill="#F7F8F0"/>
<path d="M11.5999 7.08312C11.5346 7.02071 11.4461 6.98565 11.3538 6.98565H2.84103C2.68597 6.98565 2.60833 7.16512 2.71802 7.27002L4.40013 8.8786C4.4654 8.94102 4.55389 8.97608 4.64616 8.97608H13.159C13.314 8.97608 13.3917 8.79661 13.2819 8.6917L11.5999 7.08312Z" fill="#F7F8F0"/>
</g>
</g>
<defs>
<linearGradient id="paint0_linear_66_2058" x1="10.8169" y1="-4.38886" x2="-1.86637" y2="14.649" gradientUnits="userSpaceOnUse">
<stop stop-color="#00FFA3"/>
<stop offset="1" stop-color="#DC1FFF"/>
</linearGradient>
</defs>
</svg>
