<svg width="12" height="12" viewBox="0 0 12 12" fill="none" xmlns="http://www.w3.org/2000/svg">
<g id="elements">
<path id="Vector 7375" d="M1.5 11V3.5C1.5 2.32149 1.5 1.73223 1.86612 1.36612C2.23223 1 2.82149 1 4 1H5.5C6.67851 1 7.26777 1 7.63388 1.36612C8 1.73223 8 2.32149 8 3.5V11" stroke="#F7F8F0" stroke-opacity="0.72"/>
<path id="Vector 7376" d="M1 11H8.5" stroke="#F7F8F0" stroke-opacity="0.72" stroke-linecap="round"/>
<path id="Vector 7377" d="M1.5 5.5H8" stroke="#F7F8F0" stroke-opacity="0.72" stroke-linecap="round"/>
<path id="Vector 7378" d="M10.5 4.26331L10.7236 4.15269C10.8581 4.08617 10.9253 4.05291 10.9627 3.99314C11 3.93337 11 3.85899 11 3.71024V3.36318C11 3.0413 11 2.88036 10.9127 2.80632C10.8851 2.7829 10.8527 2.76572 10.8177 2.75598C10.707 2.72521 10.5716 2.81448 10.3009 2.99303C9.95358 3.22213 9.77991 3.33667 9.66926 3.50005C9.6325 3.55432 9.60127 3.61205 9.57602 3.67241C9.5 3.85412 9.5 4.06062 9.5 4.47363V5.28986C9.5 5.40592 9.59509 5.5 9.7124 5.5C9.8861 5.5 10.0423 5.39537 10.1068 5.23581L10.5 4.26331Z" stroke="#F7F8F0" stroke-opacity="0.72" stroke-linejoin="round"/>
<path id="Vector 7379" d="M9.73888 5.5C9.83946 6.19313 10.0726 6.98492 9.97777 7.68994C9.89188 8.32848 9.38627 8.84381 8.72127 8.97061C8.56714 9 8.37809 9 8 9" stroke="#F7F8F0" stroke-opacity="0.72" stroke-linejoin="round"/>
<path id="Vector" d="M5.125 7L4.15217 7.95849C4.03342 8.08681 3.97404 8.15097 4.01083 8.20049C4.04761 8.25 4.15465 8.25 4.36874 8.25H5.13126C5.34535 8.25 5.45239 8.25 5.48917 8.29951C5.52596 8.34903 5.46658 8.41319 5.34783 8.54151L4.36874 9.5" stroke="#F7F8F0" stroke-opacity="0.72" stroke-linecap="round" stroke-linejoin="round"/>
</g>
</svg>
