<svg viewBox="0 0 16 16" fill="none" xmlns="http://www.w3.org/2000/svg">
<g id="elements">
<path id="Vector 6683" d="M6.36194 9.63764L9.63727 6.3623" stroke="#F7F8F0" stroke-opacity="0.5" stroke-linecap="round"/>
<path id="Vector" d="M1.35455 11.2692L0.86071 11.3474L0.86071 11.3474L1.35455 11.2692ZM1.35455 10.7309L0.86071 10.6527L1.35455 10.7309ZM5.26916 14.6455L5.34738 15.1394L5.34738 15.1394L5.26916 14.6455ZM4.73092 14.6455L4.80914 14.1517L4.80914 14.1517L4.73092 14.6455ZM8.64553 11.2692L9.13937 11.3474V11.3474L8.64553 11.2692ZM8.64553 10.7309L9.13937 10.6527L9.13937 10.6527L8.64553 10.7309ZM4.73092 7.35455L4.80914 7.8484L4.80914 7.8484L4.73092 7.35455ZM5.26916 7.35455L5.34738 6.86071L5.34738 6.86071L5.26916 7.35455ZM5.63533 8.05246C5.86103 8.21155 6.17298 8.15755 6.33207 7.93184C6.49116 7.70613 6.43716 7.39419 6.21145 7.2351L5.63533 8.05246ZM8.76499 9.78863C8.60589 9.56292 8.29395 9.50892 8.06824 9.66801C7.84253 9.82711 7.78853 10.139 7.94762 10.3648L8.76499 9.78863ZM3.16397 12.8361C2.69995 12.3721 2.38083 12.052 2.16275 11.7809C1.95057 11.5172 1.87289 11.3456 1.8484 11.1909L0.86071 11.3474C0.923659 11.7448 1.11777 12.0773 1.38359 12.4078C1.64351 12.7308 2.0086 13.095 2.45686 13.5432L3.16397 12.8361ZM2.45686 8.45686C2.0086 8.90513 1.64351 9.26924 1.38359 9.59233C1.11777 9.92275 0.923659 10.2553 0.86071 10.6527L1.8484 10.8091C1.87289 10.6545 1.95057 10.4829 2.16275 10.2192C2.38083 9.94808 2.69995 9.62798 3.16397 9.16397L2.45686 8.45686ZM1.8484 11.1909C1.82837 11.0645 1.82837 10.9356 1.8484 10.8091L0.86071 10.6527C0.824262 10.8828 0.824262 11.1173 0.86071 11.3474L1.8484 11.1909ZM6.83611 12.8361C6.3721 13.3001 6.052 13.6193 5.78093 13.8373C5.51719 14.0495 5.34559 14.1272 5.19094 14.1517L5.34738 15.1394C5.74482 15.0764 6.07733 14.8823 6.40776 14.6165C6.73084 14.3566 7.09496 13.9915 7.54322 13.5432L6.83611 12.8361ZM2.45686 13.5432C2.90513 13.9915 3.26924 14.3566 3.59233 14.6165C3.92275 14.8823 4.25526 15.0764 4.6527 15.1394L4.80914 14.1517C4.6545 14.1272 4.48289 14.0495 4.21915 13.8373C3.94808 13.6193 3.62798 13.3001 3.16397 12.8361L2.45686 13.5432ZM5.19094 14.1517C5.06446 14.1717 4.93562 14.1717 4.80914 14.1517L4.6527 15.1394C4.88283 15.1758 5.11725 15.1758 5.34738 15.1394L5.19094 14.1517ZM7.54322 13.5432C7.99148 13.095 8.35657 12.7308 8.61649 12.4078C8.88231 12.0773 9.07642 11.7448 9.13937 11.3474L8.15168 11.1909C8.12719 11.3456 8.04951 11.5172 7.83733 11.7809C7.61925 12.052 7.30013 12.3721 6.83611 12.8361L7.54322 13.5432ZM8.15168 10.8091C8.17172 10.9356 8.17172 11.0645 8.15168 11.1909L9.13937 11.3474C9.17582 11.1173 9.17582 10.8828 9.13937 10.6527L8.15168 10.8091ZM3.16397 9.16397C3.62798 8.69995 3.94808 8.38083 4.21915 8.16275C4.48289 7.95057 4.6545 7.87289 4.80914 7.8484L4.6527 6.86071C4.25526 6.92366 3.92275 7.11777 3.59233 7.38359C3.26924 7.64351 2.90513 8.0086 2.45686 8.45686L3.16397 9.16397ZM5.34738 6.86071C5.11725 6.82426 4.88283 6.82426 4.6527 6.86071L4.80914 7.8484C4.93562 7.82837 5.06446 7.82837 5.19094 7.8484L5.34738 6.86071ZM6.21145 7.2351C5.94292 7.04582 5.66585 6.91115 5.34738 6.86071L5.19094 7.8484C5.31573 7.86816 5.45101 7.92254 5.63533 8.05246L6.21145 7.2351ZM7.94762 10.3648C8.07754 10.5491 8.13192 10.6843 8.15168 10.8091L9.13937 10.6527C9.08893 10.3342 8.95426 10.0572 8.76499 9.78863L7.94762 10.3648Z" fill="#F7F8F0" fill-opacity="0.5"/>
<path id="Vector_2" d="M7.35455 4.73092L6.86071 4.6527L7.35455 4.73092ZM7.35455 5.26916L6.86071 5.34738V5.34738L7.35455 5.26916ZM11.2692 8.64553L11.3474 9.13937L11.3474 9.13937L11.2692 8.64553ZM10.7309 8.64553L10.8091 8.15168L10.8091 8.15168L10.7309 8.64553ZM14.6455 4.73092L15.1394 4.6527V4.6527L14.6455 4.73092ZM14.6455 5.26916L15.1394 5.34738L14.6455 5.26916ZM11.2692 1.35455L11.3474 0.86071L11.3474 0.86071L11.2692 1.35455ZM10.7309 1.35455L10.8091 1.8484L10.8091 1.8484L10.7309 1.35455ZM7.2351 6.21145C7.39419 6.43716 7.70613 6.49116 7.93184 6.33207C8.15755 6.17298 8.21155 5.86103 8.05246 5.63533L7.2351 6.21145ZM10.3648 7.94762C10.139 7.78853 9.82711 7.84253 9.66801 8.06824C9.50892 8.29395 9.56292 8.60589 9.78863 8.76499L10.3648 7.94762ZM8.45686 2.45686C8.0086 2.90513 7.64351 3.26924 7.38359 3.59233C7.11777 3.92275 6.92366 4.25526 6.86071 4.6527L7.8484 4.80914C7.87289 4.6545 7.95057 4.48289 8.16275 4.21915C8.38083 3.94808 8.69995 3.62798 9.16397 3.16397L8.45686 2.45686ZM7.8484 5.19094C7.82837 5.06446 7.82837 4.93562 7.8484 4.80914L6.86071 4.6527C6.82426 4.88283 6.82426 5.11725 6.86071 5.34738L7.8484 5.19094ZM12.8361 6.83611C12.3721 7.30013 12.052 7.61925 11.7809 7.83733C11.5172 8.04951 11.3456 8.12719 11.1909 8.15168L11.3474 9.13937C11.7448 9.07642 12.0773 8.88231 12.4078 8.61649C12.7308 8.35657 13.095 7.99148 13.5432 7.54322L12.8361 6.83611ZM11.1909 8.15168C11.0645 8.17172 10.9356 8.17172 10.8091 8.15168L10.6527 9.13937C10.8828 9.17582 11.1173 9.17582 11.3474 9.13937L11.1909 8.15168ZM12.8361 3.16397C13.3001 3.62798 13.6193 3.94808 13.8373 4.21915C14.0495 4.48289 14.1272 4.6545 14.1517 4.80914L15.1394 4.6527C15.0764 4.25526 14.8823 3.92275 14.6165 3.59233C14.3566 3.26924 13.9915 2.90513 13.5432 2.45686L12.8361 3.16397ZM13.5432 7.54322C13.9915 7.09496 14.3566 6.73084 14.6165 6.40776C14.8823 6.07733 15.0764 5.74482 15.1394 5.34738L14.1517 5.19094C14.1272 5.34559 14.0495 5.51719 13.8373 5.78093C13.6193 6.052 13.3001 6.3721 12.8361 6.83611L13.5432 7.54322ZM14.1517 4.80914C14.1717 4.93562 14.1717 5.06446 14.1517 5.19094L15.1394 5.34738C15.1758 5.11725 15.1758 4.88283 15.1394 4.6527L14.1517 4.80914ZM13.5432 2.45686C13.095 2.0086 12.7308 1.64351 12.4078 1.38359C12.0773 1.11777 11.7448 0.923659 11.3474 0.86071L11.1909 1.8484C11.3456 1.87289 11.5172 1.95057 11.7809 2.16275C12.052 2.38083 12.3721 2.69995 12.8361 3.16397L13.5432 2.45686ZM9.16397 3.16397C9.62798 2.69995 9.94808 2.38083 10.2192 2.16275C10.4829 1.95057 10.6545 1.87289 10.8091 1.8484L10.6527 0.86071C10.2553 0.923659 9.92275 1.11777 9.59233 1.38359C9.26924 1.64351 8.90513 2.0086 8.45686 2.45686L9.16397 3.16397ZM11.3474 0.86071C11.1173 0.824263 10.8828 0.824262 10.6527 0.86071L10.8091 1.8484C10.9356 1.82837 11.0645 1.82837 11.1909 1.8484L11.3474 0.86071ZM8.05246 5.63533C7.92254 5.45101 7.86816 5.31573 7.8484 5.19094L6.86071 5.34738C6.91115 5.66585 7.04582 5.94292 7.2351 6.21145L8.05246 5.63533ZM9.78863 8.76499C10.0572 8.95426 10.3342 9.08893 10.6527 9.13937L10.8091 8.15168C10.6843 8.13192 10.5491 8.07754 10.3648 7.94762L9.78863 8.76499Z" fill="#F7F8F0" fill-opacity="0.5"/>
</g>
</svg>
