<svg width="10" height="12" viewBox="0 0 10 12" fill="none" xmlns="http://www.w3.org/2000/svg">
<g id="elements">
<path id="Vector (Stroke)" d="M0.393051 4.94068C0.500799 5.1797 0.738639 5.33337 1.00082 5.33337L9.00082 5.33335C9.263 5.33335 9.50084 5.17967 9.60859 4.94065C9.71633 4.70163 9.67398 4.42165 9.50035 4.22519L9.49933 4.22405C9.47559 4.1975 9.40788 4.12179 9.36613 4.07574C9.28144 3.9823 9.15978 3.8494 9.01064 3.69015C8.71297 3.37229 8.30311 2.94653 7.85771 2.51905C7.41516 2.0943 6.92415 1.65488 6.46576 1.31736C6.23699 1.14892 6.00201 0.995145 5.77457 0.880885C5.56083 0.773511 5.28784 0.666709 5.00079 0.666707C4.71374 0.666705 4.44074 0.773508 4.22701 0.880882C3.99956 0.995144 3.76458 1.14892 3.53582 1.31737C3.07744 1.65488 2.58643 2.09431 2.14389 2.51907C1.6985 2.94655 1.28864 3.37232 0.990976 3.69018C0.841846 3.84943 0.720185 3.98233 0.635493 4.07577C0.593609 4.12198 0.525866 4.19773 0.50235 4.22403L0.501565 4.2249C0.327944 4.42136 0.285303 4.70167 0.393051 4.94068Z" fill="#F7F8F0" fill-opacity="0.72"/>
<path id="Vector (Stroke)_2" d="M0.393051 7.05932C0.500799 6.8203 0.738639 6.66663 1.00082 6.66663L9.00082 6.66665C9.263 6.66665 9.50084 6.82033 9.60859 7.05935C9.71633 7.29837 9.67398 7.57835 9.50035 7.77481L9.49933 7.77595C9.47559 7.8025 9.40788 7.87821 9.36613 7.92426C9.28144 8.0177 9.15978 8.1506 9.01064 8.30985C8.71297 8.62771 8.30311 9.05347 7.85771 9.48095C7.41516 9.9057 6.92415 10.3451 6.46576 10.6826C6.23699 10.8511 6.00201 11.0049 5.77457 11.1191C5.56083 11.2265 5.28784 11.3333 5.00079 11.3333C4.71374 11.3333 4.44074 11.2265 4.22701 11.1191C3.99956 11.0049 3.76458 10.8511 3.53582 10.6826C3.07744 10.3451 2.58643 9.90569 2.14389 9.48093C1.6985 9.05345 1.28864 8.62768 0.990976 8.30982C0.841846 8.15057 0.720185 8.01767 0.635493 7.92423C0.593609 7.87802 0.525866 7.80227 0.50235 7.77597L0.501565 7.7751C0.327944 7.57864 0.285303 7.29833 0.393051 7.05932Z" fill="#F7F8F0" fill-opacity="0.72"/>
</g>
</svg>
