<svg width="14" height="16" viewBox="0 0 14 16" fill="none" xmlns="http://www.w3.org/2000/svg">
<g id="elements">
<path id="Ellipse 1574" d="M9 10C9 10.5523 9.44772 11 10 11C10.5523 11 11 10.5523 11 10C11 9.44772 10.5523 9 10 9C9.44772 9 9 9.44772 9 10Z" stroke="#F7F8F0"/>
<path id="Vector 4584" d="M9.00251 5.20181C5.38413 4.95108 2.40313 4.41416 1 3.99994V10.0409C1 11.3705 1 12.0353 1.41305 12.5775C1.82611 13.1197 2.39282 13.2728 3.52625 13.5791C5.35748 14.0739 7.28233 14.3686 9.0071 14.5371C10.7946 14.7118 11.6884 14.7991 12.3442 14.1998C13 13.6005 13 12.6377 13 10.7121V9.36968C13 7.49976 13 6.56481 12.462 5.98453C11.9239 5.40425 10.9501 5.33677 9.00251 5.20181Z" stroke="#F7F8F0" stroke-linecap="round" stroke-linejoin="round"/>
<path id="Vector 4585" d="M10.7505 5.33337C11.0023 4.38453 11.2302 2.65885 10.5513 1.80199C10.121 1.25889 9.48153 1.31107 8.85452 1.36621C5.5586 1.65608 3.23029 2.24491 1.92868 2.64496C1.36899 2.81697 1 3.36352 1 3.97367" stroke="#F7F8F0" stroke-linejoin="round"/>
</g>
</svg>
