<svg width="15" height="14" viewBox="0 0 15 14" fill="none" xmlns="http://www.w3.org/2000/svg">
<g id="elements">
<path id="Subtract" fill-rule="evenodd" clip-rule="evenodd" d="M6.40803 0.343293C7.11767 0.107737 7.88242 0.107737 8.59206 0.343293C9.29876 0.577875 9.85363 1.13423 10.4111 1.91592C10.9667 2.69503 11.5806 3.78133 12.3719 5.18162L12.403 5.2366C13.1945 6.63711 13.8084 7.72336 14.1909 8.60428C14.5754 9.48948 14.7668 10.2538 14.6141 10.988C14.4603 11.7273 14.081 12.3996 13.5286 12.9077C12.9775 13.4146 12.2272 13.6285 11.2824 13.7312C10.343 13.8333 9.11417 13.8333 7.53254 13.8333H7.46754C5.88592 13.8333 4.65707 13.8333 3.71766 13.7312C2.77289 13.6285 2.02257 13.4146 1.47152 12.9077C0.919123 12.3996 0.539827 11.7273 0.386009 10.988C0.23324 10.2538 0.424708 9.48948 0.809144 8.60428C1.19172 7.72336 1.80561 6.6371 2.59709 5.2366L2.62816 5.18163L2.62817 5.18161L2.62817 5.1816C3.41952 3.78132 4.03343 2.69502 4.58902 1.91592C5.14646 1.13423 5.70133 0.577875 6.40803 0.343293ZM6.83333 10.3333C6.83333 9.96514 7.13048 9.66667 7.49702 9.66667H7.50298C7.86952 9.66667 8.16667 9.96514 8.16667 10.3333C8.16667 10.7015 7.86952 11 7.50298 11H7.49702C7.13048 11 6.83333 10.7015 6.83333 10.3333ZM6.83333 7.66667C6.83333 8.03486 7.13181 8.33333 7.5 8.33333C7.86819 8.33333 8.16667 8.03486 8.16667 7.66667V5C8.16667 4.63181 7.86819 4.33333 7.5 4.33333C7.13181 4.33333 6.83333 4.63181 6.83333 5L6.83333 7.66667Z" fill="#F7F8F0"/>
</g>
</svg>
