<svg viewBox="0 0 168 32" fill="none" xmlns="http://www.w3.org/2000/svg">
<g clip-path="url(#clip0_24_12297)">
<path d="M9.90967 29.2333C8.94284 29.5782 7.92178 29.7461 6.89543 29.7288C2.43617 29.7288 0 27.0862 0 22.4618V7.26704C0 2.64245 2.43617 0 6.89543 0C11.3547 0 13.7909 2.64245 13.7909 7.26704V22.4618C13.7909 24.4437 13.3368 26.0126 12.511 27.2102C12.8413 27.7883 13.3781 27.8709 14.2039 27.8709H14.9059V32H13.7083C12.0155 31.9998 10.4464 31.3805 9.90967 29.2333ZM9.24901 22.7508V6.978C9.24901 4.91346 8.34061 4.12977 6.89543 4.12977C5.45024 4.12977 4.54201 4.9143 4.54201 6.978V22.7508C4.54201 24.8152 5.45041 25.5991 6.89543 25.5991C8.34044 25.5991 9.24901 24.8152 9.24901 22.7508Z" fill="url(#paint0_linear_24_12297)"/>
<path d="M16.6812 22.4616V0.412598H21.223V22.792C21.223 24.8565 22.0901 25.5996 23.5353 25.5996C24.9805 25.5996 25.8474 24.8565 25.8474 22.792V0.412598H30.2244V22.4616C30.2244 27.0861 27.9121 29.7287 23.4529 29.7287C18.9936 29.7287 16.6812 27.0854 16.6812 22.4616Z" fill="url(#paint1_linear_24_12297)"/>
<path d="M33.4453 0.412598H37.9872V29.3163H33.4453V0.412598Z" fill="url(#paint2_linear_24_12297)"/>
<path d="M41.0835 22.6269V7.10171C41.0835 2.64245 43.3958 0 47.7725 0C52.1491 0 54.4614 2.64245 54.4614 7.10171V10.1572H50.1672V6.81284C50.1672 4.91346 49.2589 4.12893 47.8963 4.12893C46.5337 4.12893 45.6253 4.91346 45.6253 6.81284V22.9564C45.6253 24.856 46.5337 25.5991 47.8963 25.5991C49.2589 25.5991 50.1672 24.856 50.1672 22.9564V18.5391H54.4614V22.6269C54.4614 27.0862 52.1491 29.7288 47.7725 29.7288C43.3958 29.7288 41.0835 27.0855 41.0835 22.6269Z" fill="url(#paint3_linear_24_12297)"/>
<path d="M57.1865 0.412598H61.7284V12.5933L67.5091 0.412598H72.0511L66.6411 11.0242L72.1328 29.3158H67.3851L63.5452 16.434L61.7284 20.1081V29.3158H57.1865V0.412598Z" fill="url(#paint4_linear_24_12297)"/>
</g>
<path d="M109.627 29.7124C109.691 29.6815 109.737 29.7599 109.682 29.7956C108.867 30.3362 107.979 30.7568 107.044 31.0445C105.34 31.5661 103.543 31.7084 101.779 31.4615C100.105 31.2437 98.5039 30.64 97.1029 29.698C97.3442 30.4893 97.7004 31.2409 98.1602 31.9287C98.1883 31.9714 98.1329 32.0168 98.0869 31.9946C96.8004 31.3805 95.6059 30.5899 94.538 29.6456C94.7388 30.0111 94.9839 30.3503 95.2678 30.6556C95.2754 30.6638 95.28 30.6742 95.2809 30.6853C95.2818 30.6964 95.279 30.7075 95.2728 30.7167C95.2667 30.726 95.2576 30.733 95.247 30.7364C95.2365 30.7399 95.225 30.7398 95.2146 30.736C95.0045 30.6866 94.7958 30.6325 94.5891 30.5725C92.9764 30.0985 91.4668 29.3264 90.1386 28.2961C88.8317 27.2807 87.696 26.0625 86.7746 24.6877C85.8801 23.3349 85.1736 21.8669 84.6744 20.3238C84.4047 19.5238 84.135 18.7101 83.6749 17.9759C83.2078 17.2188 82.5118 16.6299 81.6878 16.2946C80.8025 15.9347 79.8106 15.8332 78.847 15.8167C78.376 15.8079 77.9062 15.8206 77.4352 15.84C77.0612 15.8554 76.6358 15.8737 76.3335 16.0808C76.3573 16.0604 76.3813 16.041 76.4067 16.0218C76.5109 15.9432 76.6211 15.873 76.7363 15.8118C77.0969 15.7503 77.4624 15.7225 77.8282 15.7287C78.3187 15.7142 78.8103 15.7104 79.3009 15.7345C80.2161 15.7532 81.1193 15.9476 81.9612 16.3071C83.6655 17.1023 84.2626 18.7652 84.7791 20.2987C85.2932 21.8876 86.0287 23.3961 86.9637 24.7796C87.9273 26.1871 89.12 27.4232 90.4922 28.4364C91.8678 29.4474 93.4259 30.183 95.0807 30.6025C94.7739 30.2536 94.516 29.8647 94.3139 29.4464C94.3092 29.4351 94.3085 29.4225 94.312 29.4108C94.3154 29.399 94.3229 29.3889 94.333 29.3819C94.3431 29.375 94.3552 29.3718 94.3674 29.3728C94.3796 29.3738 94.3911 29.379 94.3999 29.3874C95.4672 30.3658 96.6688 31.1868 97.9683 31.8253C97.5239 31.1315 97.1828 30.3768 96.9557 29.5848C96.9416 29.5345 97.0059 29.5094 97.046 29.5383C97.838 30.0987 98.707 30.5415 99.6259 30.853C102.692 31.9027 106.319 31.6385 109.085 30.0492C107.762 30.5076 106.346 30.6264 104.965 30.3945C101.911 29.9263 99.4735 28.0969 97.4431 26.1205C95.1838 23.8924 93.0636 21.5275 91.0946 19.0392C91.0911 19.0336 91.0889 19.0273 91.0881 19.0208C91.0872 19.0143 91.0877 19.0077 91.0896 19.0014C91.0914 18.9951 91.0945 18.9893 91.0988 18.9843C91.103 18.9793 91.1083 18.9752 91.1141 18.9723C91.8266 18.6096 92.5336 18.2372 93.2165 17.8318C94.3966 17.1305 95.5376 16.3159 96.3555 15.2711C96.7557 14.7682 97.0626 14.1977 97.2615 13.5865C97.2994 13.4648 97.3322 13.3428 97.3604 13.219H97.3593C97.4169 13.126 97.4713 13.0332 97.524 12.9395C97.4746 13.2363 97.3992 13.5282 97.2988 13.8119C96.3928 16.3078 93.6368 17.7957 91.2198 19.0304C92.3259 20.4078 93.4762 21.7551 94.6709 23.0722C95.6747 24.178 96.6961 25.2749 97.7879 26.312C98.8185 27.3228 99.9661 28.2068 101.206 28.9452C103.654 30.3509 106.946 31.0136 109.627 29.7124Z" fill="#F0FFFF"/>
<path d="M104.965 30.3942C106.346 30.6261 107.762 30.5074 109.085 30.0489C106.319 31.6382 102.692 31.9025 99.6259 30.8527C98.707 30.5413 97.838 30.0985 97.046 29.5381C97.0059 29.5091 96.9416 29.5342 96.9557 29.5846C97.1828 30.3765 97.5239 31.1313 97.9683 31.825C96.6688 31.1865 95.4672 30.3656 94.3999 29.3872C94.3911 29.3787 94.3796 29.3735 94.3674 29.3725C94.3552 29.3715 94.343 29.3748 94.3329 29.3817C94.3228 29.3886 94.3154 29.3988 94.312 29.4105C94.3085 29.4223 94.3092 29.4348 94.3139 29.4461C94.5159 29.8645 94.7739 30.2534 95.0807 30.6022C93.4259 30.1827 91.8678 29.4472 90.4921 28.4361C89.12 27.4229 87.9273 26.1869 86.9637 24.7794C86.0282 23.3962 85.2923 21.888 84.7777 20.2994C84.2611 18.7659 83.664 17.103 81.9597 16.3077C81.1178 15.9482 80.2147 15.7538 79.2994 15.7352C78.8089 15.711 78.3172 15.7148 77.8267 15.7293C77.461 15.7231 77.0954 15.7509 76.7349 15.8124C76.8511 15.7496 76.9718 15.6945 77.0937 15.6433C77.6451 15.4143 78.2256 15.2629 78.8186 15.1934C79.086 15.1549 79.3572 15.1506 79.6257 15.1807C79.7235 15.1954 79.7649 15.0617 79.6671 15.0482C79.1049 14.9954 78.5379 15.0486 77.9953 15.2049C77.413 15.3271 76.8581 15.5554 76.3584 15.8784C76.9993 14.8663 78.4738 14.3343 79.7257 14.7116C79.7319 14.7141 79.7386 14.7153 79.7454 14.7151C79.7521 14.7148 79.7587 14.7132 79.7648 14.7103C79.7709 14.7074 79.7763 14.7033 79.7807 14.6981C79.785 14.693 79.7883 14.6871 79.7903 14.6806C79.7923 14.6742 79.7929 14.6674 79.7921 14.6607C79.7913 14.654 79.7891 14.6476 79.7857 14.6418C79.7823 14.6359 79.7778 14.6309 79.7723 14.627C79.7669 14.623 79.7606 14.6202 79.7541 14.6188C79.7257 14.61 79.6964 14.6023 79.6671 14.5946L79.6691 14.5926C80.0596 13.7703 80.8928 13.1695 81.8369 12.8949C82.8967 12.6139 84.0201 12.6945 85.0289 13.1241C85.3201 13.2425 85.6017 13.3833 85.8712 13.5453C86.007 13.6274 86.1386 13.7145 86.2659 13.8066C86.3562 13.8714 86.5223 13.9865 86.4976 14.1065C86.4793 14.1142 86.4609 14.123 86.4443 14.1306C86.3813 14.1577 86.4368 14.2405 86.4992 14.2138C86.5025 14.2119 86.5069 14.2099 86.5111 14.2079C86.5167 14.2115 86.523 14.214 86.5295 14.2151C86.5361 14.2162 86.5428 14.2159 86.5493 14.2143C86.5557 14.2126 86.5618 14.2097 86.567 14.2056C86.5723 14.2015 86.5766 14.1964 86.5798 14.1905C86.5823 14.1852 86.5845 14.1798 86.5862 14.1742C87.9794 13.557 89.3144 12.6814 90.0362 11.4247C90.7714 10.1459 90.7333 8.62601 90.201 7.29393C89.6473 5.90967 88.5652 4.76912 87.2677 3.88107C85.906 2.95036 84.3311 2.28386 82.7311 1.7459C80.9362 1.14282 79.0852 0.72182 77.206 0.489262C77.0756 0.472782 76.9451 0.459231 76.8145 0.444765C79.6641 0.0644186 82.5466 -0.0040377 85.411 0.240607C87.9952 0.463077 90.6599 0.955626 92.8307 2.28953C93.9521 2.97928 94.9886 3.96804 95.1681 5.21791C95.1697 5.2279 95.174 5.23729 95.1804 5.24511C95.1869 5.25293 95.1953 5.25891 95.2048 5.26244C95.2142 5.26597 95.2245 5.26693 95.2345 5.26522C95.2445 5.26351 95.2538 5.25919 95.2616 5.2527C95.3869 5.13317 95.4854 4.98843 95.5507 4.82803C95.6159 4.66763 95.6464 4.49521 95.6401 4.32217C96.3016 4.88537 96.7184 5.6836 96.8024 6.54833C96.6319 7.15577 96.3557 7.72846 95.9867 8.24021C95.801 8.5068 95.5551 8.72591 95.2689 8.87979C95.1818 8.92227 95.2602 9.0422 95.3471 8.9988C95.9431 8.70456 96.3097 8.09611 96.5697 7.56016C96.6624 7.37097 96.7455 7.17724 96.8187 6.97972H96.8198C96.8089 7.52957 96.6661 8.06875 96.4033 8.55185C96.1788 8.95853 95.8717 9.31373 95.5017 9.59462C95.4506 9.63326 95.5158 9.69039 95.5679 9.67006C96.3156 9.3926 96.9463 8.86846 97.356 8.18418C97.5729 8.71056 97.649 9.28439 97.5768 9.84914H97.5779C97.5442 9.90608 97.5105 9.96321 97.4757 10.0203C97.1317 10.6063 96.6958 11.1331 96.1846 11.5807C95.9592 11.7882 95.6906 11.9432 95.3982 12.0345C95.389 12.0367 95.3803 12.0408 95.3727 12.0466C95.3651 12.0523 95.3588 12.0595 95.3541 12.0678C95.3494 12.0761 95.3465 12.0853 95.3455 12.0947C95.3445 12.1042 95.3454 12.1137 95.3483 12.1228C95.3511 12.1319 95.3558 12.1403 95.362 12.1475C95.3682 12.1547 95.3758 12.1606 95.3843 12.1647C95.3929 12.1689 95.4022 12.1712 95.4117 12.1716C95.4212 12.172 95.4307 12.1704 95.4396 12.167C95.7094 12.0868 95.9602 11.9528 96.1769 11.7732C96.4388 11.5644 96.6793 11.3301 96.8949 11.0737C97.1102 10.8246 97.309 10.5616 97.4898 10.2864C97.4264 10.5202 97.3381 10.7465 97.2265 10.9615C96.8154 11.7499 96.1347 12.3952 95.4037 12.9593C94.972 13.292 94.5162 13.6002 94.0583 13.9063C94.0528 13.9099 94.0481 13.9146 94.0445 13.92C94.0408 13.9254 94.0382 13.9315 94.0369 13.9379C94.0356 13.9443 94.0356 13.9509 94.0368 13.9574C94.0381 13.9638 94.0406 13.9699 94.0442 13.9754C94.0478 13.9808 94.0524 13.9855 94.0578 13.9892C94.0633 13.9928 94.0694 13.9954 94.0758 13.9967C94.0822 13.998 94.0888 13.9981 94.0952 13.9968C94.1016 13.9956 94.1077 13.9931 94.1132 13.9895C95.4365 13.3393 96.6187 12.4347 97.5922 11.3273C97.5477 11.808 97.5204 12.2926 97.4457 12.7705C97.3901 12.8692 97.3336 12.9668 97.2761 13.0635C96.9473 13.64 96.5308 14.1618 96.0416 14.6104C95.7888 14.8412 95.4952 15.0229 95.1759 15.1463C95.1666 15.1485 95.1579 15.1526 95.1502 15.1583C95.1426 15.164 95.1362 15.1712 95.1315 15.1795C95.1267 15.1878 95.1238 15.197 95.1227 15.2065C95.1217 15.216 95.1226 15.2256 95.1255 15.2347C95.1283 15.2438 95.133 15.2522 95.1392 15.2595C95.1454 15.2667 95.1531 15.2726 95.1617 15.2767C95.1703 15.2809 95.1796 15.2832 95.1892 15.2836C95.1987 15.2839 95.2082 15.2823 95.2171 15.2789C95.8114 15.0331 96.3292 14.633 96.7171 14.12C96.9521 13.8352 97.1663 13.5339 97.358 13.2184H97.3591C97.3309 13.3422 97.2981 13.4641 97.2602 13.5859C97.0613 14.1971 96.7544 14.7676 96.3542 15.2705C95.5363 16.3152 94.395 17.1299 93.2153 17.8312C92.5323 18.2365 91.8253 18.609 91.1129 18.9717C91.107 18.9746 91.1017 18.9786 91.0975 18.9837C91.0933 18.9887 91.0901 18.9945 91.0883 19.0008C91.0864 19.0071 91.0859 19.0137 91.0868 19.0202C91.0877 19.0267 91.0899 19.0329 91.0933 19.0385C93.0623 21.5269 95.1825 23.8918 97.4418 26.1199C99.4735 28.0967 101.911 29.926 104.965 30.3942Z" fill="#F0FFFF"/>
<path d="M97.4156 8.04979C97.636 8.53558 97.7382 9.06668 97.7137 9.59957C97.6712 9.68362 97.6254 9.76693 97.5777 9.84915H97.5766C97.6488 9.2844 97.5727 8.71057 97.3557 8.18418C96.9461 8.86846 96.3154 9.39261 95.5677 9.67007C95.5156 9.6904 95.4504 9.63345 95.5015 9.59463C95.8714 9.31374 96.1786 8.95853 96.4031 8.55185C96.6659 8.06876 96.8087 7.52958 96.8196 6.97973H96.8185C96.8551 6.88397 96.8892 6.78729 96.9207 6.69043C96.9536 7.20077 96.8736 7.71209 96.6863 8.18798C96.4991 8.66388 96.2093 9.09264 95.8375 9.44375C96.465 9.14081 96.9821 8.64934 97.3166 8.03807C97.3394 7.99595 97.4006 8.01537 97.4156 8.04979Z" fill="#F0FFFF"/>
<path d="M97.6134 11.1442C97.6418 11.1103 97.72 11.1153 97.7145 11.1684C97.67 11.6124 97.6438 12.0603 97.5895 12.505C97.5428 12.5942 97.495 12.6832 97.4459 12.7711C97.5191 12.2932 97.5472 11.8085 97.5924 11.3279C96.6189 12.4352 95.4367 13.3399 94.1134 13.99C94.108 13.9936 94.1018 13.9961 94.0954 13.9974C94.089 13.9986 94.0824 13.9986 94.076 13.9973C94.0696 13.9959 94.0635 13.9934 94.0581 13.9897C94.0526 13.9861 94.048 13.9814 94.0444 13.9759C94.0408 13.9704 94.0383 13.9643 94.037 13.9579C94.0358 13.9515 94.0358 13.9449 94.0371 13.9385C94.0385 13.9321 94.041 13.926 94.0447 13.9206C94.0483 13.9151 94.053 13.9105 94.0585 13.9069C94.5162 13.6013 94.9722 13.2926 95.4039 12.9599C96.1349 12.3957 96.8157 11.7505 97.2267 10.962C97.3384 10.7471 97.4266 10.5207 97.49 10.2869C97.553 10.1921 97.6129 10.0963 97.6695 9.99854C97.4172 11.4342 96.2413 12.4964 94.9929 13.3883C95.9801 12.7843 96.8647 12.0268 97.6134 11.1442Z" fill="#F0FFFF"/>
<path d="M96.8751 6.29175C96.8663 6.32654 96.8568 6.36133 96.8467 6.39612C96.8326 6.44648 96.8174 6.49683 96.8022 6.5481C96.7183 5.68354 96.3018 4.88539 95.6406 4.32211C95.6469 4.49515 95.6165 4.66757 95.5512 4.82798C95.486 4.98838 95.3875 5.13312 95.2622 5.25264C95.2544 5.25913 95.245 5.26345 95.235 5.26517C95.225 5.26688 95.2148 5.26592 95.2053 5.26239C95.1958 5.25886 95.1874 5.25288 95.1809 5.24506C95.1745 5.23723 95.1702 5.22785 95.1686 5.21785C94.9892 3.96798 93.9526 2.97923 92.8313 2.28948C90.6604 0.955573 87.9957 0.463025 85.4116 0.240554C82.5472 -0.00409063 79.6646 0.0643657 76.815 0.444712C76.9456 0.459178 77.0762 0.472729 77.2065 0.489209C79.0857 0.721767 80.9368 1.14277 82.7317 1.74585C84.3316 2.28381 85.9065 2.9503 87.2682 3.88101C88.5657 4.76906 89.6486 5.90961 90.2015 7.29388C90.7344 8.62595 90.7725 10.1459 90.0368 11.4247C89.3146 12.6813 87.98 13.5569 86.5867 14.1742C86.585 14.1797 86.5828 14.1852 86.5803 14.1905C86.5771 14.1963 86.5728 14.2014 86.5675 14.2055C86.5623 14.2096 86.5562 14.2126 86.5498 14.2142C86.5433 14.2158 86.5366 14.2161 86.5301 14.215C86.5235 14.2139 86.5172 14.2115 86.5117 14.2079C86.5074 14.2099 86.503 14.2119 86.4998 14.2137C86.4368 14.2408 86.3813 14.1577 86.4448 14.1306C86.4622 14.1229 86.4796 14.1141 86.4981 14.1064C86.5221 13.9865 86.3568 13.8713 86.2665 13.8065C86.1392 13.7146 86.0076 13.6275 85.8717 13.5452C85.6023 13.3832 85.3207 13.2424 85.0294 13.1241C84.0206 12.6945 82.8973 12.6138 81.8374 12.8948C80.8933 13.1695 80.0602 13.7702 79.6696 14.5926L79.6676 14.5946C79.6969 14.6023 79.7262 14.61 79.7546 14.6187C79.7612 14.6202 79.7674 14.6229 79.7729 14.6269C79.7783 14.6308 79.7829 14.6359 79.7863 14.6417C79.7897 14.6475 79.7919 14.654 79.7926 14.6607C79.7934 14.6674 79.7928 14.6741 79.7908 14.6806C79.7889 14.687 79.7856 14.693 79.7812 14.6981C79.7768 14.7032 79.7714 14.7073 79.7653 14.7103C79.7593 14.7132 79.7526 14.7148 79.7459 14.715C79.7392 14.7152 79.7325 14.7141 79.7262 14.7116C78.4743 14.3342 77.0007 14.8663 76.3589 15.8783C76.3547 15.8811 76.3514 15.884 76.347 15.8869C76.2708 15.9413 76.1992 16.0018 76.1328 16.0678C76.6852 14.9225 78.2178 14.2578 79.5719 14.5713C79.5702 14.5622 79.5714 14.5527 79.5752 14.5442C79.8195 14.0539 80.1904 13.6377 80.6496 13.3388C81.5638 12.7483 82.6625 12.5126 83.7386 12.6762C84.3278 12.7596 84.9003 12.9349 85.4352 13.1957C85.6965 13.3221 85.9484 13.4673 86.1888 13.63C86.3353 13.7296 86.5858 13.8777 86.6087 14.0575C86.7273 14.0044 86.8458 13.9502 86.9623 13.8927C88.3337 13.2222 89.6149 12.2558 90.1717 10.9169C90.7254 9.58395 90.5187 8.07884 89.8628 6.80554C89.182 5.48408 88.0008 4.4252 86.6653 3.61203C85.2073 2.76101 83.65 2.09272 82.0287 1.62225C80.2394 1.07155 78.4 0.699501 76.5373 0.511549C76.5294 0.51096 76.5217 0.508673 76.5148 0.504849C76.5079 0.501025 76.5019 0.495754 76.4972 0.489393H76.4961C76.4265 0.499098 76.3981 0.406078 76.4666 0.396556C78.1733 0.153538 79.8939 0.0219745 81.6177 0.00270082C83.1349 -0.0152696 84.6519 0.0564496 86.1606 0.217482C87.4839 0.344839 88.7923 0.596498 90.0684 0.969123C91.2827 1.31617 92.4298 1.86529 93.4617 2.59343C94.3373 3.23869 95.0693 4.08994 95.2574 5.10488C95.3643 4.98296 95.4434 4.83926 95.4892 4.68374C95.5351 4.52822 95.5466 4.36459 95.5229 4.20419C95.5163 4.15878 95.5848 4.14615 95.6145 4.17032C95.9937 4.46392 96.3053 4.83575 96.528 5.26051C96.6969 5.58399 96.814 5.93197 96.8751 6.29175Z" fill="#F0FFFF"/>
<path d="M116.726 0H121.705L124.935 24.3588H125.024L128.254 0H132.785L128.03 31.4022H121.48L116.726 0Z" fill="#F0FFFF"/>
<path d="M135.162 0H148.621V4.48603H140.097V12.7852H146.871V17.2712H140.097V26.9158H148.62V31.4019H135.162L135.162 0Z" fill="#F0FFFF"/>
<path d="M151.446 0H157.637L162.437 18.7961H162.527V0H166.923V31.4022H161.854L155.932 8.47841H155.843V31.4017H151.446V0Z" fill="#F0FFFF"/>
<path d="M111.791 0H105.108L101 25.2174L105.068 27.9833L105.466 25.2551H111.073V25.1655L111.641 29.1087H116.532L111.791 0ZM106.049 20.9943L108.202 5.47278H108.292L110.489 20.9943H106.049Z" fill="#F0FFFF"/>
<path d="M116.905 31.5846L116.681 30.208H111.772L111.971 31.5846H116.905Z" fill="#F0FFFF"/>
<defs>
<linearGradient id="paint0_linear_24_12297" x1="7.45294" y1="1.5" x2="7.45294" y2="32" gradientUnits="userSpaceOnUse">
<stop stop-color="#1DFFF1"/>
<stop offset="1" stop-color="#1DFAB8" stop-opacity="0.825197"/>
</linearGradient>
<linearGradient id="paint1_linear_24_12297" x1="23.4528" y1="1.78679" x2="23.4528" y2="29.7287" gradientUnits="userSpaceOnUse">
<stop stop-color="#1DFFF1"/>
<stop offset="1" stop-color="#1DFAB8" stop-opacity="0.825197"/>
</linearGradient>
<linearGradient id="paint2_linear_24_12297" x1="35.7162" y1="1.76746" x2="35.7162" y2="29.3163" gradientUnits="userSpaceOnUse">
<stop stop-color="#1DFFF1"/>
<stop offset="1" stop-color="#1DFAB8" stop-opacity="0.825197"/>
</linearGradient>
<linearGradient id="paint3_linear_24_12297" x1="47.7725" y1="1.39354" x2="47.7725" y2="29.7288" gradientUnits="userSpaceOnUse">
<stop stop-color="#1DFFF1"/>
<stop offset="1" stop-color="#1DFAB8" stop-opacity="0.825197"/>
</linearGradient>
<linearGradient id="paint4_linear_24_12297" x1="64.6597" y1="1.76743" x2="64.6597" y2="29.3158" gradientUnits="userSpaceOnUse">
<stop stop-color="#1DFFF1"/>
<stop offset="1" stop-color="#1DFAB8" stop-opacity="0.825197"/>
</linearGradient>
<clipPath id="clip0_24_12297">
<rect width="72.133" height="32" fill="white"/>
</clipPath>
</defs>
</svg>
