<svg viewBox="0 0 32 32" fill="none" xmlns="http://www.w3.org/2000/svg">
<g id="HIGH QUALITY LOGO">
<g id="raven-logo-container">
<mask id="mask0_24_12281" style="mask-type:alpha" maskUnits="userSpaceOnUse" x="0" y="0" width="32" height="32">
<circle id="ellipse-mask" cx="16" cy="16" r="16" fill="#1DFFAE"/>
</mask>
<g mask="url(#mask0_24_12281)">
<circle id="ellipse-mask_2" cx="16" cy="16" r="16" fill="#1DFFAE"/>
<g id="raven-logo">
<mask id="mask1_24_12281" style="mask-type:alpha" maskUnits="userSpaceOnUse" x="0" y="5" width="32" height="28">
<path id="mask" d="M31.6378 15.9626V15.9392L31.6343 15.9162C31.5248 15.2045 30.9398 13.312 29.4704 11.162C27.6138 8.44553 24.8674 6.4863 20.7111 6.13506C18.6253 5.9588 16.9067 6.38958 15.6357 6.96595C14.3747 7.53784 13.5356 8.26213 13.2196 8.69795C12.6935 9.42367 12.2268 9.76953 11.5628 9.85051C11.1534 9.90044 10.0346 10.1045 8.8424 10.4866C7.66373 10.8644 6.34709 11.4361 5.60303 12.2525C4.90099 13.0228 4.27455 13.9328 4.00942 14.9577C3.74099 15.9952 3.8492 17.1281 4.57825 18.3128L4.92277 18.8726L5.12742 18.2479C5.45176 17.2578 6.24534 16.6919 7.07765 16.6087C7.98637 16.5178 10.0037 16.6121 11.6301 18.0037C12.371 18.6375 12.5819 19.7493 12.0559 20.7143C11.5355 21.6692 10.252 22.5334 7.90686 22.5149C4.09396 22.4849 1.98403 21.1878 1.44061 20.6108L0.928575 20.9129C1.49399 22.6741 2.84292 25.3188 5.0617 27.5698C7.28465 29.8251 10.392 31.6955 14.4631 31.867C24.577 32.2933 31.6378 25.1285 31.6378 15.9626Z" fill="white" stroke="white" stroke-width="0.609524"/>
</mask>
<g mask="url(#mask1_24_12281)">
<path id="raven" d="M31.8282 16.057V16.0337L31.8247 16.0107C31.7152 15.2989 31.1302 13.4065 29.6608 11.2565C27.8042 8.54001 25.0578 6.58078 20.9015 6.22955C18.8158 6.05329 17.0971 6.48406 15.8262 7.06043C14.5651 7.63232 13.726 8.35661 13.4101 8.79244C12.8839 9.51815 12.4173 9.86401 11.7532 9.94499C11.3438 9.99492 10.225 10.199 9.03283 10.5811C7.85416 10.9589 6.53752 11.5306 5.79346 12.347C5.09142 13.1173 4.46498 14.0273 4.19985 15.0521C3.93142 16.0897 4.03963 17.2225 4.76867 18.4072L5.1132 18.9671L5.31785 18.3424C5.64219 17.3523 6.43577 16.7864 7.26808 16.7031C8.1768 16.6123 10.1941 16.7066 11.8206 18.0981C12.5614 18.732 12.7723 19.8438 12.2463 20.8088C11.7259 21.7637 10.4424 22.6279 8.09729 22.6094C4.28439 22.5794 2.17446 21.2823 1.63104 20.7052L1.119 21.0073C1.68442 22.7686 3.03335 25.4132 5.25213 27.6643C7.47508 29.9196 10.5824 31.79 14.6535 31.9615C24.7674 32.3878 31.8282 25.223 31.8282 16.057Z" fill="#0F141B" stroke="#1DFFAE" stroke-width="0.609524"/>
<path id="upper-beak" d="M4.97827 18.1657C3.6807 15.971 4.66363 14.0387 6.01822 12.5524C7.38964 11.0477 11.0087 10.3429 11.7896 10.2477C12.1656 10.2018 12.4842 10.0809 12.7752 9.88281C12.7833 9.88381 12.7913 9.88479 12.7992 9.88577C12.4246 10.2477 11.622 11.5277 11.4087 13.7524C8.92554 13.7524 5.51807 15.1672 4.97827 18.1657Z" fill="#444545"/>
<path id="lower-beak" d="M5.25586 17.7264C5.89812 16.133 7.66348 14.0311 11.4096 13.9808C11.2508 14.7872 11.1239 16.6665 11.8858 17.7332C11.881 17.7369 11.8761 17.7405 11.8712 17.7442C10.185 16.3946 8.16332 16.3074 7.23814 16.3999C6.44693 16.479 5.69515 16.9394 5.25586 17.7264Z" fill="#2D2E2E"/>
<circle id="eye" cx="18.7045" cy="12.3428" r="1.6" fill="white"/>
</g>
</g>
<path id="border" d="M31.3905 16C31.3905 18.0211 30.9924 20.0224 30.2189 21.8897C29.4455 23.7569 28.3118 25.4536 26.8827 26.8827C25.4536 28.3118 23.7569 29.4455 21.8897 30.2189C20.0224 30.9924 18.0211 31.3905 16 31.3905C13.9789 31.3905 11.9776 30.9924 10.1103 30.2189C8.24306 29.4455 6.54643 28.3118 5.11729 26.8827C3.68815 25.4536 2.5545 23.7569 1.78105 21.8897C1.00761 20.0224 0.609524 18.0211 0.609524 16C0.609524 13.9789 1.00761 11.9776 1.78105 10.1103C2.5545 8.24306 3.68815 6.54643 5.11729 5.11729C6.54643 3.68815 8.24306 2.5545 10.1103 1.78105C11.9776 1.00761 13.9789 0.609524 16 0.609524C18.0211 0.609524 20.0224 1.00761 21.8897 1.78105C23.7569 2.5545 25.4536 3.68815 26.8827 5.11729C28.3118 6.54643 29.4455 8.24306 30.2189 10.1103C30.9924 11.9776 31.3905 13.9789 31.3905 16L31.3905 16Z" stroke="#0F141B" stroke-width="1.21905"/>
</g>
</g>
</g>
</svg>
