<svg width="14" height="14" viewBox="0 0 14 14" fill="none" xmlns="http://www.w3.org/2000/svg">
<g id="elements">
<path id="Rectangle 1773" d="M0.666687 6.99999C0.666687 4.01443 0.666687 2.52165 1.59418 1.59415C2.52168 0.666656 4.01446 0.666656 7.00002 0.666656C9.98558 0.666656 11.4784 0.666656 12.4059 1.59415C13.3334 2.52165 13.3334 4.01443 13.3334 6.99999C13.3334 9.98555 13.3334 11.4783 12.4059 12.4058C11.4784 13.3333 9.98558 13.3333 7.00002 13.3333C4.01446 13.3333 2.52168 13.3333 1.59418 12.4058C0.666687 11.4783 0.666687 9.98555 0.666687 6.99999Z" stroke="#F7F8F0" stroke-opacity="0.5"/>
<path id="Vector 2612" d="M7.16148 10.3333V7.00001C7.16148 6.68574 7.16148 6.52861 7.06385 6.43097C6.96622 6.33334 6.80908 6.33334 6.49481 6.33334" stroke="#F7F8F0" stroke-opacity="0.5" stroke-linecap="round" stroke-linejoin="round"/>
<path id="Vector" d="M6.99468 4.33334H7.00067" stroke="#F7F8F0" stroke-opacity="0.5" stroke-width="1.33333" stroke-linecap="round" stroke-linejoin="round"/>
</g>
</svg>
