<svg width="16" height="16" viewBox="0 0 16 16" fill="none" xmlns="http://www.w3.org/2000/svg">
<path fill-rule="evenodd" clip-rule="evenodd" d="M8.03814 1.16663C9.49861 1.16662 10.6457 1.16661 11.5413 1.28702C12.4591 1.41041 13.1873 1.66844 13.7594 2.24057C14.3315 2.8127 14.5896 3.54087 14.713 4.45864C14.8334 5.35425 14.8334 6.50136 14.8334 7.96182V7.96185V8.03807V8.0381C14.8334 9.49856 14.8334 10.6457 14.713 11.5413C14.5896 12.459 14.3315 13.1872 13.7594 13.7594C13.1873 14.3315 12.4591 14.5895 11.5413 14.7129C10.6457 14.8333 9.49862 14.8333 8.03816 14.8333H8.03813H7.96191H7.96188C6.50142 14.8333 5.35431 14.8333 4.4587 14.7129C3.54093 14.5895 2.81276 14.3315 2.24063 13.7594C1.6685 13.1872 1.41047 12.459 1.28708 11.5413C1.16667 10.6457 1.16668 9.49855 1.16669 8.03808V7.96184C1.16668 6.50137 1.16667 5.35425 1.28708 4.45864C1.41047 3.54087 1.6685 2.8127 2.24063 2.24057C2.81276 1.66844 3.54093 1.41041 4.4587 1.28702C5.35431 1.16661 6.50143 1.16662 7.9619 1.16663H8.03814ZM7.78792 7.01817C7.95262 7.04031 8.18045 7.09959 8.37377 7.29292C8.5671 7.48624 8.62638 7.71407 8.64852 7.87877C8.66686 8.0152 8.66676 8.17385 8.66668 8.3071L8.66667 8.33336V11C8.66667 11.3682 8.36819 11.6667 8 11.6667C7.63181 11.6667 7.33333 11.3682 7.33333 11V8.33336C6.96514 8.33336 6.66667 8.03488 6.66667 7.66669C6.66667 7.2985 6.96514 7.00002 7.33333 7.00002L7.35959 7.00001C7.49284 6.99993 7.65148 6.99983 7.78792 7.01817ZM7.99696 4.33333C7.63042 4.33333 7.33328 4.63181 7.33328 5C7.33328 5.36819 7.63042 5.66667 7.99696 5.66667H8.00292C8.36947 5.66667 8.66661 5.36819 8.66661 5C8.66661 4.63181 8.36947 4.33333 8.00292 4.33333H7.99696Z" fill="#F7F8F0"/>
</svg>
