<svg width="90" height="30" viewBox="0 0 90 30" fill="none" xmlns="http://www.w3.org/2000/svg">
<g filter="url(#filter0_d_124_1540)">
<path fill-rule="evenodd" clip-rule="evenodd" d="M5.89499 8.79633C5.83766 8.30273 5.25191 8.18654 4.75849 8.08866C4.30106 7.99792 3.92297 7.92292 4.11879 7.57756C5.82337 4.57133 9.55001 5.98271 9.55001 5.98271C9.55001 5.98271 15.2516 1.04526 18.5522 4.09883C21.6516 6.9662 18.3379 10.9138 18.3379 10.9138C18.3379 10.9138 22.5407 11.2639 23.3749 16.029C23.9962 19.5786 22.2961 22.8988 19.2901 24.8862C16.597 26.6668 13.3156 27.3818 10.44 25.9142L10.4013 25.8944C9.00755 25.1832 7.86839 24.602 7.55219 23.0641C6.14697 16.2299 6.00353 11.7267 5.94084 9.75864C5.92618 9.29829 5.91593 8.97664 5.89499 8.79633ZM11.6313 13.0759C11.389 12.4334 10.8391 10.9465 11.1221 8.69214C11.1916 8.13921 14.1146 4.86574 15.0221 7.98771C15.9296 11.1097 11.8736 13.7183 11.6313 13.0759ZM12.2253 19.5716C12.2883 19.961 12.3485 20.3334 12.3959 20.7412C12.5475 22.0463 13.8585 22.7089 15.1636 22.5573C17.2727 22.3123 18.6059 20.5099 18.4168 18.4491C18.2441 16.5675 16.941 15.237 15.0751 14.9393C13.8443 14.7429 11.8317 15.0708 11.8819 16.3161C11.9427 17.8238 12.0904 18.7368 12.2253 19.5716Z" fill="#FBE94B"/>
</g>
<g filter="url(#filter1_d_124_1540)">
<path fill-rule="evenodd" clip-rule="evenodd" d="M24.2107 12.3818C24.6081 12.5631 25.0339 12.7574 25.1923 13.2488C25.3863 13.8502 25.406 14.7809 25.4287 15.8552C25.4677 17.6996 25.5157 19.9672 26.4697 21.7173C26.5861 21.9308 26.6784 22.1169 26.7622 22.2858C27.0234 22.8125 27.2018 23.1721 27.7694 23.6747C29.2184 24.9578 30.6726 24.9562 32.6026 24.811C33.494 24.744 34.1033 24.3032 34.6183 23.9305C34.9979 23.6559 35.3263 23.4182 35.6788 23.3946C35.79 23.3871 35.8832 23.4675 36.0198 23.5852C36.3937 23.9075 37.0926 24.5098 39.3737 24.3568C40.9237 24.2529 41.6078 23.5154 42.3973 22.6644C42.4965 22.5575 42.5973 22.4488 42.7017 22.3393C42.7827 22.2544 42.8729 22.3947 43.028 22.6357C43.4249 23.2528 44.2468 24.5307 46.4275 24.3844C48.751 24.2286 49.3241 23.4028 49.6927 22.8716C49.8712 22.6145 50.0017 22.4264 50.2596 22.4166C50.4919 22.4077 50.5723 22.6572 50.6848 23.0063C50.9552 23.8454 51.411 25.2603 54.6087 25.0458C56.1884 24.9398 56.9324 23.9916 57.4502 23.3316C57.9129 22.7419 58.1951 22.3822 58.7316 23.0584C59.6432 24.2073 63.8706 25.6437 67.9131 24.9462C70.6437 24.475 72.4655 23.7171 74.1069 21.4846C75.5963 19.459 75.6913 15.2444 75.6913 15.2444C75.6913 15.2444 76.4933 15.0205 76.9958 15.4073C77.2354 15.5917 77.2333 16.3236 77.2306 17.3081C77.2247 19.3962 77.2155 22.6207 79.5029 24.1688C81.146 25.2808 83.5607 25.5657 84.9316 25.4737C86.7183 25.3539 88.9934 24.0162 88.0957 22.2571C87.7402 21.5604 86.8606 22.0415 85.9657 22.531C85.4095 22.8352 84.8475 23.1426 84.4017 23.1725C82.6301 23.2914 81.5364 21.5139 81.4176 19.7424C81.3542 18.7973 81.3986 17.5896 81.4419 16.4101C81.511 14.531 81.5774 12.7233 81.2012 12.1625C80.5174 11.1432 78.8057 11.8176 77.4367 12.3571C76.3924 12.7685 75.5475 13.1015 75.5102 12.5442C75.4935 12.295 75.0839 6.18853 70.2966 8.84639C68.4629 9.86444 69.4025 12.9539 71.3179 14.119C72.1009 14.5953 71.1219 21.5461 67.9951 22.437C65.3904 23.1792 62.4969 21.5419 62.0394 18.8724C61.902 18.0712 62.6422 18.2436 63.7247 18.4959C65.5961 18.9319 68.4906 19.6064 69.6431 15.9004C70.7909 12.2094 66.2458 8.79885 61.9884 9.40366C58.4344 9.90855 56.3214 12.1205 56.2087 16.5512C56.1798 17.6908 56.5517 18.628 56.897 19.4982C57.0588 19.9059 57.2148 20.2988 57.321 20.6911C57.473 21.2526 57.3705 21.4296 56.0363 21.4449C54.8688 21.4583 54.8286 20.8583 54.8286 20.8583C54.8286 20.8583 54.7692 11.2649 53.8645 6.48521C53.55 4.82404 52.5724 2.77467 49.7476 2.96415C49.1016 3.00748 48.5454 3.44172 48.5295 4.08904C48.4657 6.69193 48.9533 11.4236 49.3408 15.1837C49.6315 18.0048 49.8659 20.279 49.7687 20.6969C49.6072 21.3916 49.2929 21.6527 48.6225 21.6501C47.9522 21.6475 47.4043 21.3584 47.3067 20.6952C46.9972 18.5935 46.6044 11.1935 46.4294 7.89578C46.3876 7.10897 46.3582 6.5557 46.3454 6.36365C46.2356 4.72765 45.012 3.28179 42.5196 3.44898C41.7951 3.49757 41.0963 3.86589 41.0522 4.59059C40.8406 8.06816 42.4816 19.0576 42.4816 19.0576C42.4816 19.0576 42.8537 21.4946 40.954 21.7889C40.2405 21.8995 39.8219 21.0863 39.7736 20.3659C39.7419 19.8924 39.7183 19.1086 39.6909 18.1949C39.6196 15.8221 39.522 12.5724 39.1857 11.6008C38.5622 9.79949 36.3531 9.18511 34.751 9.56155C33.5698 9.83909 31.9505 10.2218 32.2454 11.3987C32.3557 11.8388 32.8499 11.9694 33.3036 12.0892C33.7312 12.2022 34.1229 12.3056 34.1236 12.6497C34.1283 15.1988 34.2838 16.7037 34.4417 18.2323C34.5216 19.0056 34.6022 19.785 34.6641 20.7086C34.6948 21.1656 33.7043 21.6358 32.9336 21.6593C31.8184 21.6932 30.9891 20.9304 30.7256 19.8462C30.4857 18.8589 30.5129 17.8626 30.5424 16.7843C30.5766 15.5308 30.6138 14.1664 30.238 12.5766C29.8175 10.7978 28.0747 9.63145 26.2488 9.71457C24.9669 9.77292 23.5104 10.1294 23.3998 11.4079C23.3495 11.9889 23.7619 12.1771 24.2107 12.3818ZM61.5981 16.6487C61.26 15.962 61.0313 11.4829 63.1303 11.4969C65.0928 11.5101 65.8426 13.9855 65.3421 15.8551C65.1296 16.6489 64.6061 17.0729 63.8416 17.1241C63.7705 17.1289 63.6963 17.1346 63.6197 17.1405C62.8721 17.198 61.9052 17.2723 61.5981 16.6487Z" fill="#FBE94B"/>
</g>
<g filter="url(#filter2_d_124_1540)">
<path d="M38.9301 12.2094C35.5106 12.4804 34.0468 11.9298 33.3546 11.6781C30.6406 10.6912 34.1154 13.1941 34.8178 13.5765C35.8808 14.155 37.4629 14.7374 39.1998 14.9102C40.9508 15.0844 41.9498 14.9463 43.6513 14.4977C49.589 12.9323 51.3007 8.77827 56.235 7.98445C61.1272 7.19739 60.8735 8.38442 60.8942 7.78867C60.9409 6.44683 55.1325 4.88228 51.2516 6.1235C46.3293 7.69776 42.9179 11.8935 38.9301 12.2094Z" fill="#FBE94B"/>
</g>
<path d="M78.9951 8.3908C78.6504 8.3908 78.3591 8.33574 78.1211 8.2256C77.8866 8.11547 77.7072 7.96447 77.5828 7.77262C77.4585 7.57722 77.3963 7.35695 77.3963 7.11181H78.1371C78.1371 7.21484 78.1655 7.31609 78.2223 7.41557C78.2792 7.5115 78.3698 7.58966 78.4941 7.65005C78.622 7.71045 78.789 7.74065 78.9951 7.74065C79.1798 7.74065 79.3343 7.714 79.4587 7.66071C79.583 7.60742 79.6754 7.53814 79.7358 7.45287C79.7962 7.36406 79.8264 7.26458 79.8264 7.15444C79.8264 7.01588 79.7678 6.90575 79.6505 6.82404C79.5333 6.73877 79.3521 6.68548 79.107 6.66416L78.7659 6.63752C78.3929 6.60554 78.0944 6.49008 77.8706 6.29112C77.6503 6.08861 77.5402 5.82216 77.5402 5.49175C77.5402 5.24306 77.5988 5.02989 77.7161 4.85225C77.8333 4.67106 77.9967 4.5325 78.2063 4.43658C78.4195 4.3371 78.6682 4.28736 78.9524 4.28736C79.2473 4.28736 79.5013 4.33888 79.7145 4.44191C79.9277 4.54494 80.0929 4.6906 80.2101 4.8789C80.3273 5.06364 80.386 5.28214 80.386 5.53438H79.6452C79.6452 5.4278 79.6186 5.3301 79.5653 5.24128C79.5155 5.14891 79.4392 5.07608 79.3361 5.02278C79.2366 4.96594 79.1087 4.93752 78.9524 4.93752C78.8032 4.93752 78.6789 4.96239 78.5794 5.01213C78.4799 5.06186 78.4053 5.12937 78.3556 5.21463C78.3058 5.2999 78.281 5.39227 78.281 5.49175C78.281 5.61254 78.3254 5.71913 78.4142 5.8115C78.503 5.90032 78.6433 5.95183 78.8352 5.96604L79.1762 5.99802C79.4534 6.01933 79.6967 6.07796 79.9063 6.17388C80.116 6.2698 80.2776 6.39948 80.3913 6.56291C80.5085 6.72633 80.5672 6.92351 80.5672 7.15444C80.5672 7.39958 80.5032 7.6163 80.3753 7.8046C80.2474 7.98934 80.0644 8.13323 79.8264 8.23626C79.5919 8.33929 79.3148 8.3908 78.9951 8.3908ZM83.0869 8.3908C82.7352 8.3908 82.4297 8.32863 82.1703 8.20428C81.9145 8.07994 81.7013 7.91829 81.5308 7.71933C81.3638 7.51682 81.2377 7.30011 81.1524 7.06918C81.0707 6.83469 81.0299 6.60909 81.0299 6.39237V6.27513C81.0299 6.0371 81.0725 5.80084 81.1578 5.56636C81.243 5.32832 81.3709 5.11338 81.5415 4.92153C81.7156 4.72968 81.9305 4.57691 82.1863 4.46322C82.4421 4.34598 82.7423 4.28736 83.0869 4.28736C83.428 4.28736 83.7264 4.34598 83.9822 4.46322C84.238 4.57691 84.4512 4.72968 84.6217 4.92153C84.7958 5.11338 84.9255 5.32832 85.0107 5.56636C85.096 5.80084 85.1386 6.0371 85.1386 6.27513V6.39237C85.1386 6.60909 85.096 6.83469 85.0107 7.06918C84.929 7.30011 84.8029 7.51682 84.6324 7.71933C84.4654 7.91829 84.2522 8.07994 83.9929 8.20428C83.7371 8.32863 83.4351 8.3908 83.0869 8.3908ZM83.0869 7.68736C83.2859 7.68736 83.4635 7.65183 83.6198 7.58077C83.7797 7.50972 83.9147 7.41202 84.0249 7.28767C84.1385 7.15977 84.2238 7.01588 84.2807 6.85601C84.3411 6.69258 84.3712 6.52027 84.3712 6.33908C84.3712 6.14368 84.3411 5.96427 84.2807 5.80084C84.2238 5.63741 84.1385 5.4953 84.0249 5.37451C83.9147 5.25371 83.7797 5.15957 83.6198 5.09206C83.46 5.02456 83.2823 4.99081 83.0869 4.99081C82.888 4.99081 82.7086 5.02456 82.5487 5.09206C82.3888 5.15957 82.252 5.25371 82.1383 5.37451C82.0282 5.4953 81.9429 5.63741 81.8825 5.80084C81.8257 5.96427 81.7973 6.14368 81.7973 6.33908C81.7973 6.52027 81.8257 6.69258 81.8825 6.85601C81.9429 7.01588 82.0282 7.15977 82.1383 7.28767C82.252 7.41202 82.3888 7.50972 82.5487 7.58077C82.7086 7.65183 82.888 7.68736 83.0869 7.68736ZM85.87 8.28955V4.39927H86.6267V8.28955H85.87ZM86.5201 8.28955V7.62341H88.1988V8.28955H86.5201Z" fill="#FBE94B"/>
<defs>
<filter id="filter0_d_124_1540" x="4.06543" y="3.10217" width="19.4365" height="24.8503" filterUnits="userSpaceOnUse" color-interpolation-filters="sRGB">
<feFlood flood-opacity="0" result="BackgroundImageFix"/>
<feColorMatrix in="SourceAlpha" type="matrix" values="0 0 0 0 0 0 0 0 0 0 0 0 0 0 0 0 0 0 127 0" result="hardAlpha"/>
<feOffset dy="1.24902"/>
<feComposite in2="hardAlpha" operator="out"/>
<feColorMatrix type="matrix" values="0 0 0 0 0.847059 0 0 0 0 0.458824 0 0 0 0 0.172549 0 0 0 1 0"/>
<feBlend mode="normal" in2="BackgroundImageFix" result="effect1_dropShadow_124_1540"/>
<feBlend mode="normal" in="SourceGraphic" in2="effect1_dropShadow_124_1540" result="shape"/>
</filter>
<filter id="filter1_d_124_1540" x="22.8959" y="2.9519" width="65.402" height="23.7037" filterUnits="userSpaceOnUse" color-interpolation-filters="sRGB">
<feFlood flood-opacity="0" result="BackgroundImageFix"/>
<feColorMatrix in="SourceAlpha" type="matrix" values="0 0 0 0 0 0 0 0 0 0 0 0 0 0 0 0 0 0 127 0" result="hardAlpha"/>
<feOffset dx="-0.499607" dy="1.16575"/>
<feComposite in2="hardAlpha" operator="out"/>
<feColorMatrix type="matrix" values="0 0 0 0 0.847059 0 0 0 0 0.458824 0 0 0 0 0.172549 0 0 0 1 0"/>
<feBlend mode="normal" in2="BackgroundImageFix" result="effect1_dropShadow_124_1540"/>
<feBlend mode="normal" in="SourceGraphic" in2="effect1_dropShadow_124_1540" result="shape"/>
</filter>
<filter id="filter2_d_124_1540" x="31.9999" y="5.67102" width="28.8946" height="9.89501" filterUnits="userSpaceOnUse" color-interpolation-filters="sRGB">
<feFlood flood-opacity="0" result="BackgroundImageFix"/>
<feColorMatrix in="SourceAlpha" type="matrix" values="0 0 0 0 0 0 0 0 0 0 0 0 0 0 0 0 0 0 127 0" result="hardAlpha"/>
<feOffset dx="-0.333072" dy="0.582875"/>
<feComposite in2="hardAlpha" operator="out"/>
<feColorMatrix type="matrix" values="0 0 0 0 0.847059 0 0 0 0 0.458824 0 0 0 0 0.172549 0 0 0 1 0"/>
<feBlend mode="normal" in2="BackgroundImageFix" result="effect1_dropShadow_124_1540"/>
<feBlend mode="normal" in="SourceGraphic" in2="effect1_dropShadow_124_1540" result="shape"/>
</filter>
</defs>
</svg>
