<svg width="36" height="25" viewBox="0 0 36 25" fill="none" xmlns="http://www.w3.org/2000/svg">
<g filter="url(#filter0_d_124_1535)">
<path d="M5.12275 8.26016C5.12275 8.26016 8.18621 10.7919 10.4716 12.1485L12.4059 13.1874C14.5211 14.2431 16.8271 15.2078 16.8271 15.2078C16.8271 15.2078 20.8942 13.5051 23.38 12.1485C25.8658 10.7919 29.5579 8.26016 29.5579 8.26016C29.5579 8.26016 28.6973 7.53493 27.5249 6.61727C27.5249 6.61727 29.7744 4.87896 31.8474 5.59559C34.3417 6.45782 35.3555 7.50319 34.4923 9.99707C33.2488 13.5893 29.5396 12.1202 26.0643 14.7341C23.755 16.471 26.0643 18.6477 22.7681 20.2014C20.4332 21.302 18.2789 19.1019 15.7021 19.254C11.9465 19.4756 12.4059 26.024 7.37283 22.8068C2.35759 19.6009 8.91088 16.9775 6.44516 14.2406C4.77004 12.3813 0.997597 15.2078 0.0501923 10.6287C-0.77694 6.63087 8.89262 5.05249 8.89262 5.05249C7.00763 6.53761 5.12275 8.26016 5.12275 8.26016Z" fill="#D9D9D9"/>
<path d="M5.12275 8.26016C5.12275 8.26016 8.18621 10.7919 10.4716 12.1485L12.4059 13.1874C14.5211 14.2431 16.8271 15.2078 16.8271 15.2078C16.8271 15.2078 20.8942 13.5051 23.38 12.1485C25.8658 10.7919 29.5579 8.26016 29.5579 8.26016C29.5579 8.26016 28.6973 7.53493 27.5249 6.61727C27.5249 6.61727 29.7744 4.87896 31.8474 5.59559C34.3417 6.45782 35.3555 7.50319 34.4923 9.99707C33.2488 13.5893 29.5396 12.1202 26.0643 14.7341C23.755 16.471 26.0643 18.6477 22.7681 20.2014C20.4332 21.302 18.2789 19.1019 15.7021 19.254C11.9465 19.4756 12.4059 26.024 7.37283 22.8068C2.35759 19.6009 8.91088 16.9775 6.44516 14.2406C4.77004 12.3813 0.997597 15.2078 0.0501923 10.6287C-0.77694 6.63087 8.89262 5.05249 8.89262 5.05249C7.00763 6.53761 5.12275 8.26016 5.12275 8.26016Z" fill="url(#paint0_linear_124_1535)"/>
</g>
<path d="M23.38 12.1484C25.8659 10.7918 29.5579 8.26013 29.5579 8.26013V10.9839C29.5579 10.9839 25.8659 13.5449 23.38 14.9709C20.8942 16.3969 16.8271 18.2868 16.8271 18.2868V15.2078C16.8271 15.2078 20.8942 13.505 23.38 12.1484Z" fill="url(#paint1_linear_124_1535)"/>
<path d="M5.12305 8.26013C5.12305 8.26013 8.18651 10.7918 10.4719 12.1484L12.4654 13.2168C14.5642 14.2609 16.8274 15.2078 16.8274 15.2078V18.2868C16.8274 18.2868 12.4043 16.2005 9.7219 14.6354C7.83344 13.5335 5.12305 11.4576 5.12305 11.4576V8.26013Z" fill="url(#paint2_linear_124_1535)"/>
<path d="M5.12305 8.26015C5.12305 8.26015 8.18651 10.7918 10.4719 12.1485C10.4719 12.1485 10.7483 12.7998 10.6693 13.3524C10.607 13.7889 10.4738 13.5701 10.2548 13.9643C10.0574 14.3196 10.411 14.7205 10.8469 14.5959C11.1233 14.517 10.8667 14.1025 11.2417 14.063C11.6167 14.0235 11.4193 13.7077 11.6759 13.4497C12.0121 13.1115 12.9391 13.4497 12.9391 13.4497C14.8908 14.3976 16.8274 15.2078 16.8274 15.2078C16.8274 15.2078 20.8945 13.5051 23.3803 12.1485C25.8661 10.7918 29.5582 8.26015 29.5582 8.26015C29.5582 8.26015 26.2017 5.43157 23.7158 3.87841C21.23 2.32525 16.8274 0.305908 16.8274 0.305908C16.8274 0.305908 12.8194 2.26716 10.4719 3.87841C8.24562 5.4065 5.12305 8.26015 5.12305 8.26015Z" fill="white"/>
<path d="M5.12305 8.26015C5.12305 8.26015 8.18651 10.7918 10.4719 12.1485C10.4719 12.1485 10.7483 12.7998 10.6693 13.3524C10.607 13.7889 10.4738 13.5701 10.2548 13.9643C10.0574 14.3196 10.411 14.7205 10.8469 14.5959C11.1233 14.517 10.8667 14.1025 11.2417 14.063C11.6167 14.0235 11.4193 13.7077 11.6759 13.4497C12.0121 13.1115 12.9391 13.4497 12.9391 13.4497C14.8908 14.3976 16.8274 15.2078 16.8274 15.2078C16.8274 15.2078 20.8945 13.5051 23.3803 12.1485C25.8661 10.7918 29.5582 8.26015 29.5582 8.26015C29.5582 8.26015 26.2017 5.43157 23.7158 3.87841C21.23 2.32525 16.8274 0.305908 16.8274 0.305908C16.8274 0.305908 12.8194 2.26716 10.4719 3.87841C8.24562 5.4065 5.12305 8.26015 5.12305 8.26015Z" fill="url(#paint3_linear_124_1535)"/>
<defs>
<filter id="filter0_d_124_1535" x="0" y="5.05249" width="35.0318" height="19.6286" filterUnits="userSpaceOnUse" color-interpolation-filters="sRGB">
<feFlood flood-opacity="0" result="BackgroundImageFix"/>
<feColorMatrix in="SourceAlpha" type="matrix" values="0 0 0 0 0 0 0 0 0 0 0 0 0 0 0 0 0 0 127 0" result="hardAlpha"/>
<feOffset dx="0.236851" dy="0.986879"/>
<feComposite in2="hardAlpha" operator="out"/>
<feColorMatrix type="matrix" values="0 0 0 0 0.847059 0 0 0 0 0.458824 0 0 0 0 0.172549 0 0 0 1 0"/>
<feBlend mode="normal" in2="BackgroundImageFix" result="effect1_dropShadow_124_1535"/>
<feBlend mode="normal" in="SourceGraphic" in2="effect1_dropShadow_124_1535" result="shape"/>
</filter>
<linearGradient id="paint0_linear_124_1535" x1="17.3995" y1="14.3591" x2="17.3995" y2="22.0962" gradientUnits="userSpaceOnUse">
<stop stop-color="#FBE523"/>
<stop offset="1" stop-color="#EEB412"/>
</linearGradient>
<linearGradient id="paint1_linear_124_1535" x1="23.5774" y1="15.8394" x2="24.0214" y2="4.73302" gradientUnits="userSpaceOnUse">
<stop stop-color="#EEB412"/>
<stop offset="1" stop-color="#FBE523"/>
<stop offset="1" stop-color="#FBE523"/>
</linearGradient>
<linearGradient id="paint2_linear_124_1535" x1="11.8141" y1="19.175" x2="12.7153" y2="3.685" gradientUnits="userSpaceOnUse">
<stop stop-color="#EEB412"/>
<stop offset="1" stop-color="#FBE523"/>
<stop offset="1" stop-color="#FBE523"/>
</linearGradient>
<linearGradient id="paint3_linear_124_1535" x1="17.3603" y1="20.9712" x2="17.3603" y2="3.16786" gradientUnits="userSpaceOnUse">
<stop stop-color="#EEB412"/>
<stop offset="0.366331" stop-color="#FBE523"/>
<stop offset="1" stop-color="#FBFF30" stop-opacity="0.6"/>
</linearGradient>
</defs>
</svg>
