<svg width="16" height="16" viewBox="0 0 16 16" fill="none" xmlns="http://www.w3.org/2000/svg">
<g id="elements">
<path id="Vector" d="M14.6398 7.31382C14.6756 7.86728 14.6756 8.44045 14.6398 8.99392C14.457 11.8222 12.2357 14.075 9.44705 14.2604C8.49566 14.3236 7.50236 14.3235 6.55291 14.2604C6.22596 14.2386 5.86958 14.1606 5.56265 14.0342C5.22116 13.8935 5.05038 13.8232 4.9636 13.8339C4.87682 13.8445 4.75092 13.9374 4.4991 14.1231C4.0551 14.4505 3.49576 14.6857 2.66626 14.6655C2.24682 14.6552 2.0371 14.6501 1.94321 14.4901C1.84932 14.33 1.96625 14.1084 2.20012 13.6652C2.52448 13.0506 2.72998 12.3469 2.41858 11.7831C1.88227 10.9777 1.42671 10.024 1.36014 8.99392C1.32437 8.44045 1.32437 7.86728 1.36014 7.31382C1.54292 4.48558 3.76424 2.23276 6.55291 2.04738C7.35454 1.9941 7.52078 1.98571 8.33331 2.02245" stroke="#F7F8F0" stroke-opacity="0.5" stroke-linecap="round" stroke-linejoin="round"/>
<path id="Vector_2" d="M5.66669 10H10.3334M5.66669 6.66667H8.00002" stroke="#F7F8F0" stroke-opacity="0.5" stroke-linecap="round" stroke-linejoin="round"/>
<path id="Ellipse 351" d="M14.6667 3.66668C14.6667 4.95534 13.622 6.00001 12.3333 6.00001C11.0447 6.00001 10 4.95534 10 3.66668C10 2.37801 11.0447 1.33334 12.3333 1.33334C13.622 1.33334 14.6667 2.37801 14.6667 3.66668Z" stroke="#F7F8F0" stroke-opacity="0.5"/>
</g>
</svg>
