<svg width="16" height="16" viewBox="0 0 16 16" fill="none" xmlns="http://www.w3.org/2000/svg">
<g clip-path="url(#clip0_165_2674)">
<path fill-rule="evenodd" clip-rule="evenodd" d="M8.95156 1.60268C8.89386 1.51304 8.74392 1.51013 8.44405 1.50431C7.79976 1.4918 7.15049 1.50656 6.51975 1.54849C3.47531 1.75086 1.05979 4.20839 0.861181 7.28157C0.824024 7.85651 0.824024 8.45122 0.861181 9.02617C0.935129 10.1704 1.4343 11.2027 1.98918 12.0403C2.15541 12.3613 2.0688 12.8427 1.75792 13.4319L1.7436 13.459C1.63914 13.6568 1.53689 13.8505 1.4779 14.0156C1.4154 14.1905 1.3508 14.4683 1.51192 14.743C1.65995 14.9954 1.89648 15.0879 2.08766 15.1249C2.24638 15.1556 2.44101 15.1602 2.62361 15.1646L2.6541 15.1653C3.60059 15.1884 4.26756 14.9151 4.79585 14.5255L4.85936 14.4787C4.93904 14.4201 4.97888 14.3908 5.03068 14.3844C5.08247 14.378 5.12799 14.3965 5.21904 14.4336L5.21906 14.4336C5.26415 14.452 5.31487 14.4729 5.37224 14.4965C5.73316 14.6452 6.14312 14.7342 6.51975 14.7593C7.49126 14.8238 8.50672 14.824 9.48021 14.7593C12.5246 14.5569 14.9402 12.0994 15.1388 9.02617C15.1759 8.45122 15.1759 7.85651 15.1388 7.28157C15.1354 7.22912 15.1314 7.17685 15.1267 7.12477V7.12476C15.0998 6.82489 15.0863 6.67495 14.9838 6.62576C14.8813 6.57656 14.7382 6.67167 14.4519 6.86187C13.845 7.26509 13.1166 7.5 12.3333 7.5C10.2162 7.5 8.49998 5.78376 8.49998 3.66667C8.49998 3.1275 8.61129 2.61433 8.81219 2.14888C8.94357 1.84451 9.00926 1.69232 8.95156 1.60268ZM5.66667 10.5C5.39052 10.5 5.16667 10.2761 5.16667 10C5.16667 9.72386 5.39052 9.5 5.66667 9.5H10.3333C10.6095 9.5 10.8333 9.72386 10.8333 10C10.8333 10.2761 10.6095 10.5 10.3333 10.5H5.66667ZM5.66667 7.16667C5.39052 7.16667 5.16667 6.94281 5.16667 6.66667C5.16667 6.39052 5.39052 6.16667 5.66667 6.16667H8C8.27614 6.16667 8.5 6.39052 8.5 6.66667C8.5 6.94281 8.27614 7.16667 8 7.16667H5.66667Z" fill="#F7F8F0"/>
<path d="M9.5 3.66671C9.5 2.1019 10.7685 0.833374 12.3333 0.833374C13.8981 0.833374 15.1667 2.1019 15.1667 3.66671C15.1667 5.23151 13.8981 6.50004 12.3333 6.50004C10.7685 6.50004 9.5 5.23151 9.5 3.66671Z" fill="#F7F8F0"/>
</g>
<defs>
<clipPath id="clip0_165_2674">
<rect width="16" height="16" fill="white"/>
</clipPath>
</defs>
</svg>
