<svg width="16" height="14" viewBox="0 0 16 14" fill="none" xmlns="http://www.w3.org/2000/svg">
<g id="elements">
<path id="Subtract" fill-rule="evenodd" clip-rule="evenodd" d="M6.07157 0.902366C6.69962 0.442892 7.30073 0.166656 7.99996 0.166656C8.69919 0.166656 9.3003 0.442893 9.92835 0.902367C10.5378 1.34825 11.2243 2.00653 12.0905 2.83713L12.1139 2.85953L13.8333 4.44785V8.03763C13.8333 9.26279 13.8333 10.2332 13.7312 10.9927C13.6261 11.7743 13.4047 12.4069 12.9058 12.9058C12.4069 13.4047 11.7743 13.6261 10.9926 13.7312C10.2332 13.8333 9.26273 13.8333 8.03757 13.8333H7.96232C6.73716 13.8333 5.76675 13.8333 5.00728 13.7312C4.22566 13.6261 3.59303 13.4047 3.09412 12.9058C2.59521 12.4069 2.3738 11.7743 2.26872 10.9927C2.16661 10.2332 2.16662 9.26277 2.16663 8.03761V8.0376V4.44785L3.88603 2.85952L3.90939 2.83712L3.9094 2.83712C4.77561 2.00652 5.46211 1.34824 6.07157 0.902366ZM7.99702 9.5C7.53843 9.5 7.16667 9.8731 7.16667 10.3333C7.16667 10.7936 7.53843 11.1667 7.99702 11.1667C8.45178 11.1667 8.83333 10.7922 8.83333 10.3333C8.83333 9.87444 8.45178 9.5 7.99702 9.5Z" fill="#F7F8F0"/>
<path id="Rectangle 2332 (Stroke)" fill-rule="evenodd" clip-rule="evenodd" d="M6.76043 1.84396C6.22218 2.23774 5.59242 2.83967 4.69013 3.70485L1.7947 6.4812C1.52894 6.73602 1.10692 6.72716 0.852097 6.4614C0.59727 6.19565 0.606131 5.77363 0.871889 5.5188L3.80196 2.70924C4.66141 1.88512 5.35467 1.22035 5.97316 0.767864C6.61638 0.297287 7.25175 0 7.99996 0C8.74817 0 9.38354 0.297287 10.0268 0.767865C10.6453 1.22035 11.3385 1.88512 12.198 2.70924L15.128 5.5188C15.3938 5.77363 15.4027 6.19565 15.1478 6.4614C14.893 6.72716 14.471 6.73602 14.2052 6.4812L11.3098 3.70485C10.4075 2.83968 9.77774 2.23774 9.23949 1.84396C8.71768 1.46221 8.35632 1.33333 7.99996 1.33333C7.6436 1.33333 7.28224 1.46221 6.76043 1.84396Z" fill="#F7F8F0"/>
</g>
</svg>
