<svg width="16" height="16" viewBox="0 0 16 16" fill="none" xmlns="http://www.w3.org/2000/svg">
<g clip-path="url(#clip0_165_2668)">
<path fill-rule="evenodd" clip-rule="evenodd" d="M0.833374 4.00004C0.833374 3.63185 1.13185 3.33337 1.50004 3.33337L3.50004 3.33337C3.86823 3.33337 4.16671 3.63185 4.16671 4.00004C4.16671 4.36823 3.86823 4.66671 3.50004 4.66671L1.50004 4.66671C1.13185 4.66671 0.833374 4.36823 0.833374 4.00004ZM0.833374 8.00004C0.833374 7.63185 1.13185 7.33337 1.50004 7.33337H3.50004C3.86823 7.33337 4.16671 7.63185 4.16671 8.00004C4.16671 8.36823 3.86823 8.66671 3.50004 8.66671H1.50004C1.13185 8.66671 0.833374 8.36823 0.833374 8.00004ZM0.833374 12C0.833374 11.6319 1.13185 11.3334 1.50004 11.3334H3.50004C3.86823 11.3334 4.16671 11.6319 4.16671 12C4.16671 12.3682 3.86823 12.6667 3.50004 12.6667H1.50004C1.13185 12.6667 0.833374 12.3682 0.833374 12Z" fill="#F7F8F0"/>
<path fill-rule="evenodd" clip-rule="evenodd" d="M6.55793 15.1026C6.5 15.0442 6.5 14.9514 6.5 14.7658V1.23424C6.5 1.04868 6.5 0.955908 6.55793 0.897443C6.61586 0.838979 6.70801 0.83813 6.89232 0.836434C7.22523 0.833369 7.58144 0.833371 7.96225 0.833374H9.37096C10.5961 0.833364 11.5665 0.833357 12.326 0.935465C13.1076 1.04055 13.7403 1.26196 14.2392 1.76087C14.7381 2.25978 14.9595 2.89241 15.0646 3.67403C15.1667 4.4335 15.1667 5.40394 15.1667 6.6291V9.37101C15.1667 10.5962 15.1667 11.5666 15.0646 12.3261C14.9595 13.1077 14.7381 13.7403 14.2392 14.2392C13.7403 14.7381 13.1076 14.9595 12.326 15.0646C11.5665 15.1667 10.5961 15.1667 9.37094 15.1667H7.96236C7.5817 15.1667 7.2251 15.1667 6.89232 15.1636C6.70801 15.162 6.61586 15.1611 6.55793 15.1026ZM9.5 4.00004C9.13181 4.00004 8.83333 4.29852 8.83333 4.66671C8.83333 5.0349 9.13181 5.33337 9.5 5.33337L12.1667 5.33338C12.5349 5.33338 12.8333 5.0349 12.8333 4.66671C12.8333 4.29852 12.5349 4.00004 12.1667 4.00004L9.5 4.00004ZM9.5 6.66671C9.13181 6.66671 8.83333 6.96518 8.83333 7.33337C8.83333 7.70156 9.13181 8.00004 9.5 8.00004H10.8333C11.2015 8.00004 11.5 7.70156 11.5 7.33337C11.5 6.96518 11.2015 6.66671 10.8333 6.66671H9.5Z" fill="#F7F8F0"/>
<path d="M5.49996 1.3157C5.49996 1.11132 5.49996 1.00913 5.4323 0.949414C5.36465 0.889701 5.26658 0.901983 5.07044 0.926546C5.04922 0.929202 5.02817 0.931934 5.00728 0.934743C4.22566 1.03983 3.59303 1.26124 3.09412 1.76015C2.59521 2.25906 2.3738 2.89169 2.26872 3.6733C2.16661 4.43278 2.16662 5.40319 2.16663 6.62836V9.37026C2.16662 10.5954 2.16661 11.5659 2.26872 12.3253C2.3738 13.1069 2.59521 13.7396 3.09412 14.2385C3.59303 14.7374 4.22566 14.9588 5.00728 15.0639C5.02817 15.0667 5.04922 15.0694 5.07044 15.0721C5.26658 15.0967 5.36465 15.1089 5.4323 15.0492C5.49996 14.9895 5.49996 14.8873 5.49996 14.6829L5.49996 1.3157Z" fill="#F7F8F0"/>
</g>
<defs>
<clipPath id="clip0_165_2668">
<rect width="16" height="16" fill="white"/>
</clipPath>
</defs>
</svg>
