<svg width="16" height="16" viewBox="0 0 16 16" fill="none" xmlns="http://www.w3.org/2000/svg">
<g id="elements">
<path id="Vector 6727" d="M14.6666 9.33334V6.66668C14.6666 4.15252 14.6666 2.89544 13.8856 2.11439C13.1045 1.33334 11.8475 1.33334 9.33329 1.33334H7.99996C5.4858 1.33334 4.22872 1.33334 3.44767 2.11439C2.66663 2.89544 2.66663 4.15252 2.66663 6.66668V9.33334C2.66663 11.8475 2.66663 13.1046 3.44767 13.8856C4.22872 14.6667 5.4858 14.6667 7.99996 14.6667H9.33329C11.8475 14.6667 13.1045 14.6667 13.8856 13.8856C14.6666 13.1046 14.6666 11.8475 14.6666 9.33334Z" stroke="#F7F8F0" stroke-opacity="0.5"/>
<path id="Vector" d="M3.33337 4L1.33337 4M3.33337 8H1.33337M3.33337 12H1.33337" stroke="#F7F8F0" stroke-opacity="0.5" stroke-linecap="round" stroke-linejoin="round"/>
<path id="Vector_2" d="M11.6667 4.66666L9 4.66666M10.3333 7.33332H9" stroke="#F7F8F0" stroke-opacity="0.5" stroke-linecap="round" stroke-linejoin="round"/>
<path id="Vector 2435" d="M6 14.6667L6 1.33332" stroke="#F7F8F0" stroke-opacity="0.5" stroke-linecap="round" stroke-linejoin="round"/>
</g>
</svg>
