<svg viewBox="0 0 16 16" fill="none" xmlns="http://www.w3.org/2000/svg">
<g id="crypto-icon">
<path id="Union" fill-rule="evenodd" clip-rule="evenodd" d="M5.92892 7.14901L8.00053 5.07741L10.0739 7.15079L11.2792 5.94546L8.00053 2.66675L4.72359 5.94368L5.92892 7.14901ZM2.66644 8.00073L3.87146 6.79572L5.07647 8.00073L3.87146 9.20575L2.66644 8.00073ZM8.00049 10.9247L5.92889 8.85309L4.72178 10.0566L4.72356 10.0584L8.00049 13.3354L11.2792 10.0566L10.0739 8.85132L8.00049 10.9247ZM10.9235 8.00155L12.1285 6.79653L13.3335 8.00155L12.1285 9.20656L10.9235 8.00155ZM8.00051 6.77808L9.22359 8.00116L8.00051 9.22601L6.77743 8.00293V7.99938L6.99222 7.78459L7.09695 7.68163L8.00051 6.77808Z" fill="#F7F8F0"/>
</g>
</svg>
