<svg width="12" height="11" viewBox="0 0 12 11" fill="none" xmlns="http://www.w3.org/2000/svg">
<g id="Group 16">
<path id="Vector" d="M6.03925 0.383389C7.2768 0.383389 8.46485 0.383389 9.7024 0.383389C9.80141 0.383389 9.85091 0.433526 9.85091 0.483663C10.5439 2.03791 11.237 3.54203 11.9795 5.04614C12.029 5.09628 11.9795 5.14641 11.93 5.19655C11.0885 6.04888 10.2469 6.90121 9.35589 7.75354C8.26684 8.80642 7.12829 9.90944 6.03925 10.9623C5.94025 11.0125 5.94025 11.0125 5.89074 10.9623C4.8017 9.90944 3.71265 8.85656 2.62361 7.75354C1.78207 6.90121 0.891037 6.04888 0.0495022 5.19655C1.88098e-07 5.14641 0 5.09628 0 5.04614C0.346514 4.24395 0.74253 3.49189 1.08904 2.68969C1.43556 1.93764 1.78207 1.23572 2.12859 0.483663C2.17809 0.383389 2.22759 0.333252 2.3761 0.333252C3.61365 0.383389 4.8017 0.333252 6.03925 0.383389ZM6.08875 1.73709C5.19771 1.73709 4.25718 1.73709 3.36614 1.73709C3.31664 1.73709 3.31664 1.73709 3.26714 1.73709C3.21763 1.73709 3.21763 1.73709 3.21763 1.78723C3.21763 2.23846 3.21763 2.68969 3.16813 3.19107C3.16813 3.2412 3.16813 3.2412 3.21763 3.2412C3.36614 3.2412 3.51465 3.2412 3.66315 3.2412C4.15817 3.2412 4.65319 3.2412 5.14821 3.2412C5.19771 3.2412 5.19772 3.2412 5.24722 3.2412C5.29672 3.2412 5.29672 3.29134 5.29672 3.34148C5.29672 3.54203 5.29672 3.79271 5.29672 3.99326C5.29672 4.0434 5.29672 4.0434 5.24722 4.09353C4.9007 4.14367 4.55419 4.14367 4.20767 4.19381C3.76216 4.24394 3.31664 4.34422 2.92062 4.49463C2.72261 4.54477 2.57411 4.64504 2.4256 4.74532C2.27709 4.89573 2.27709 5.09628 2.4256 5.19655C2.5246 5.29682 2.62361 5.34696 2.72261 5.3971C3.06913 5.54751 3.41564 5.59765 3.76216 5.69792C4.25718 5.79819 4.7522 5.84833 5.24722 5.89847C5.34622 5.89847 5.34622 5.89847 5.34622 5.99874C5.34622 6.90121 5.34622 7.85382 5.34622 8.75628C5.34622 8.85656 5.34622 8.85656 5.44523 8.85656C5.89074 8.85656 6.38576 8.85656 6.83128 8.85656C6.97979 8.85656 6.97979 8.85656 6.97979 8.70615C6.97979 7.95409 6.97979 7.25217 6.97979 6.50011C6.97979 6.29957 6.97979 6.09902 6.97979 5.89847C6.97979 5.7982 7.02929 5.7982 7.07879 5.7982C7.57381 5.7982 8.01933 5.74806 8.51435 5.64778C8.91037 5.59765 9.25688 5.49737 9.6034 5.34696C9.7024 5.29682 9.8014 5.19655 9.90041 5.14641C9.99941 5.04614 9.99941 4.94586 9.90041 4.84559C9.8014 4.79545 9.7519 4.69518 9.6529 4.64504C9.05887 4.29408 8.36584 4.14367 7.67282 4.09353C7.47481 4.09353 7.2768 4.09353 7.07879 4.0434C7.02929 4.0434 7.02929 4.0434 7.02929 3.94312C7.02929 3.74257 7.02929 3.49189 7.02929 3.29134C7.02929 3.2412 7.02929 3.19107 7.12829 3.19107C7.2768 3.19107 7.42531 3.19107 7.57381 3.19107C8.06883 3.19107 8.51435 3.19107 9.00937 3.19107C9.10838 3.19107 9.10838 3.14093 9.10838 3.09079C9.10838 3.04066 9.10838 3.04065 9.10838 2.99052C9.10838 2.58942 9.10838 2.18832 9.10838 1.73709C9.10838 1.63682 9.10838 1.63682 9.00937 1.63682C7.92033 1.73709 6.97979 1.73709 6.08875 1.73709Z" fill="#F7F8F0"/>
<path id="Vector_2" d="M5.84106 5.54729C5.49454 5.54729 5.19753 5.54729 4.85102 5.49715C4.30649 5.44701 3.71247 5.39687 3.16795 5.19633C3.06894 5.14619 2.96994 5.09605 2.82143 5.04591C2.67293 4.94564 2.67293 4.84537 2.82143 4.79523C3.01944 4.69495 3.21745 4.64482 3.41546 4.59468C3.81147 4.49441 4.20749 4.44427 4.65301 4.39413C4.80152 4.39413 4.99952 4.34399 5.14803 4.34399C5.19753 4.34399 5.24703 4.34399 5.24703 4.44427C5.24703 4.74509 5.24703 4.99578 5.24703 5.2966C5.24703 5.39687 5.29654 5.39688 5.34604 5.39688C5.74205 5.39688 6.13807 5.39688 6.48459 5.39688C6.58359 5.39688 6.68259 5.39688 6.7816 5.39688C6.8806 5.39688 6.8806 5.39687 6.8806 5.2966C6.8806 5.04591 6.8806 4.79523 6.8806 4.54454C6.8806 4.39413 6.8806 4.39413 7.02911 4.39413C7.67264 4.44427 8.31616 4.49441 8.95969 4.69495C9.05869 4.74509 9.2072 4.79523 9.30621 4.84537C9.40521 4.8955 9.40521 4.99578 9.30621 5.04591C9.1082 5.19633 8.91019 5.24646 8.66268 5.2966C8.16766 5.39687 7.67264 5.49715 7.17762 5.49715C6.7816 5.49715 6.28658 5.54729 5.84106 5.54729Z" fill="#F7F8F0"/>
</g>
</svg>
