<svg  viewBox="0 0 16 16" fill="none" xmlns="http://www.w3.org/2000/svg">
<g clip-path="url(#clip0_28_3617)">
<path d="M9.33333 12C12.2789 12 14.6667 9.61223 14.6667 6.66671C14.6667 3.72119 12.2789 1.33337 9.33333 1.33337C6.38781 1.33337 4 3.72119 4 6.66671C4 9.61223 6.38781 12 9.33333 12Z" stroke="#F7F8F0" stroke-linecap="round"/>
<path d="M2.10436 7.33337C1.6168 8.07841 1.33331 8.96907 1.33331 9.92593C1.33331 12.5442 3.45583 14.6667 6.07409 14.6667C7.03095 14.6667 7.92161 14.3832 8.66665 13.8957" stroke="#F7F8F0" stroke-linecap="round"/>
<path d="M9.82328 4C9.82328 3.72386 9.59942 3.5 9.32328 3.5C9.04713 3.5 8.82328 3.72386 8.82328 4L9.82328 4ZM8.82328 9.33333C8.82328 9.60948 9.04713 9.83333 9.32328 9.83333C9.59942 9.83333 9.82328 9.60948 9.82328 9.33333H8.82328ZM10.046 5.57973C10.1002 5.85049 10.3637 6.02599 10.6345 5.97173C10.9052 5.91748 11.0807 5.654 11.0265 5.38324L10.046 5.57973ZM8.48849 7.7452C8.42959 7.47541 8.16313 7.30446 7.89335 7.36336C7.62356 7.42226 7.4526 7.68872 7.51151 7.9585L8.48849 7.7452ZM9.32328 6.08996C8.91917 6.08996 8.7485 6.01274 8.68342 5.96085C8.64403 5.92945 8.59183 5.8685 8.59183 5.66815H7.59183C7.59183 6.06176 7.70756 6.46172 8.05999 6.74273C8.38674 7.00326 8.83179 7.08996 9.32328 7.08996V6.08996ZM8.59183 5.66815C8.59183 5.4118 8.85355 5.09271 9.32328 5.09271V4.09271C8.43278 4.09271 7.59183 4.7366 7.59183 5.66815H8.59183ZM10.1667 7.66541C10.1667 7.89927 10.0855 8.01119 9.98347 8.08369C9.85615 8.17422 9.63662 8.24086 9.32328 8.24086V9.24086C9.75187 9.24086 10.204 9.15386 10.5629 8.89871C10.9472 8.62553 11.1667 8.19973 11.1667 7.66541H10.1667ZM9.32328 7.08996C9.73244 7.08996 9.93253 7.16381 10.0253 7.23541C10.0892 7.28472 10.1667 7.38196 10.1667 7.66541H11.1667C11.1667 7.18068 11.0203 6.7402 10.6364 6.44383C10.2813 6.16976 9.8097 6.08996 9.32328 6.08996V7.08996ZM9.82328 4.59271L9.82328 4L8.82328 4L8.82328 4.59271L9.82328 4.59271ZM8.82328 8.74086V9.33333H9.82328V8.74086H8.82328ZM9.32328 5.09271C9.73554 5.09271 9.99962 5.3484 10.046 5.57973L11.0265 5.38324C10.8705 4.60461 10.1254 4.09271 9.32328 4.09271V5.09271ZM9.32328 8.24086C8.82289 8.24086 8.53457 7.95625 8.48849 7.7452L7.51151 7.9585C7.68598 8.75763 8.49865 9.24086 9.32328 9.24086V8.24086Z" fill="#141B34"/>
</g>
<defs>
<clipPath id="clip0_28_3617">
<rect width="16" height="16" fill="white"/>
</clipPath>
</defs>
</svg>
