<svg  viewBox="0 0 24 24" fill="none" xmlns="http://www.w3.org/2000/svg">
<g id="crypto-icon">
<rect width="24" height="24" rx="4" fill="#F3BA2F"/>
<path id="binancedex" d="M13.6672 17.9483V19.9655L11.9086 21L10.2017 19.9655V17.9483L11.9086 18.9828L13.6672 17.9483ZM4.25342 10.9655L5.96031 12V15.4655L8.90859 17.2241V19.2414L4.25342 16.5V10.9655ZM19.5638 10.9655V16.5L14.8569 19.2414V17.2241L17.8051 15.4655V12L19.5638 10.9655ZM14.8569 8.22414L16.6155 9.25862V11.2759L13.6672 13.0345V16.5517L11.9603 17.5862L10.2534 16.5517V13.0345L7.20169 11.2759V9.25862L8.96031 8.22414L11.9086 9.98276L14.8569 8.22414ZM7.20169 12.7241L8.90859 13.7586V15.7759L7.20169 14.7414V12.7241ZM16.6155 12.7241V14.7414L14.9086 15.7759V13.7586L16.6155 12.7241ZM5.96031 6.46552L7.71893 7.5L5.96031 8.53448V10.5517L4.25342 9.51724V7.5L5.96031 6.46552ZM17.8569 6.46552L19.6155 7.5V9.51724L17.8569 10.5517V8.53448L16.15 7.5L17.8569 6.46552ZM11.9086 6.46552L13.6672 7.5L11.9086 8.53448L10.2017 7.5L11.9086 6.46552ZM11.9086 3L16.6155 5.74138L14.9086 6.77586L11.9603 5.01724L8.96031 6.77586L7.25342 5.74138L11.9086 3Z" fill="white"/>
</g>
</svg>
